ISO-10303-21;
HEADER;
/* Generated by software containing ST-Developer
 * from STEP Tools, Inc. (www.steptools.com) 
 */

FILE_DESCRIPTION(
/* description */ (''),
/* implementation_level */ '2;1');

FILE_NAME(
/* name */ 'Extruder LED v2.stp',
/* time_stamp */ '2025-10-21T12:50:26+10:00',
/* author */ ('Jcw Drafting Lab 1'),
/* organization */ (''),
/* preprocessor_version */ 'ST-DEVELOPER v20',
/* originating_system */ 'Autodesk Inventor 2025',
/* authorisation */ '');

FILE_SCHEMA (('AUTOMOTIVE_DESIGN { 1 0 10303 214 3 1 1 }'));
ENDSEC;

DATA;
#10=MECHANICAL_DESIGN_GEOMETRIC_PRESENTATION_REPRESENTATION('',(#13,#14,
#15,#16),#727);
#11=SHAPE_REPRESENTATION_RELATIONSHIP('SRR','None',#734,#12);
#12=ADVANCED_BREP_SHAPE_REPRESENTATION('',(#17,#18,#19,#20),#726);
#13=STYLED_ITEM('',(#744),#17);
#14=STYLED_ITEM('',(#745),#18);
#15=STYLED_ITEM('',(#746),#19);
#16=STYLED_ITEM('',(#746),#20);
#17=MANIFOLD_SOLID_BREP('Solid1',#431);
#18=MANIFOLD_SOLID_BREP('Solid2',#432);
#19=MANIFOLD_SOLID_BREP('Solid3',#433);
#20=MANIFOLD_SOLID_BREP('Solid4',#434);
#21=FACE_BOUND('',#80,.T.);
#22=FACE_BOUND('',#81,.T.);
#23=FACE_BOUND('',#83,.T.);
#24=FACE_BOUND('',#84,.T.);
#25=PLANE('',#463);
#26=PLANE('',#467);
#27=PLANE('',#471);
#28=PLANE('',#472);
#29=PLANE('',#473);
#30=PLANE('',#474);
#31=PLANE('',#475);
#32=PLANE('',#476);
#33=PLANE('',#477);
#34=PLANE('',#478);
#35=PLANE('',#479);
#36=PLANE('',#480);
#37=PLANE('',#481);
#38=PLANE('',#482);
#39=PLANE('',#483);
#40=PLANE('',#484);
#41=PLANE('',#485);
#42=PLANE('',#486);
#43=PLANE('',#487);
#44=PLANE('',#488);
#45=PLANE('',#489);
#46=PLANE('',#490);
#47=FACE_OUTER_BOUND('',#73,.T.);
#48=FACE_OUTER_BOUND('',#74,.T.);
#49=FACE_OUTER_BOUND('',#75,.T.);
#50=FACE_OUTER_BOUND('',#76,.T.);
#51=FACE_OUTER_BOUND('',#77,.T.);
#52=FACE_OUTER_BOUND('',#78,.T.);
#53=FACE_OUTER_BOUND('',#79,.T.);
#54=FACE_OUTER_BOUND('',#82,.T.);
#55=FACE_OUTER_BOUND('',#85,.T.);
#56=FACE_OUTER_BOUND('',#86,.T.);
#57=FACE_OUTER_BOUND('',#87,.T.);
#58=FACE_OUTER_BOUND('',#88,.T.);
#59=FACE_OUTER_BOUND('',#89,.T.);
#60=FACE_OUTER_BOUND('',#90,.T.);
#61=FACE_OUTER_BOUND('',#91,.T.);
#62=FACE_OUTER_BOUND('',#92,.T.);
#63=FACE_OUTER_BOUND('',#93,.T.);
#64=FACE_OUTER_BOUND('',#94,.T.);
#65=FACE_OUTER_BOUND('',#95,.T.);
#66=FACE_OUTER_BOUND('',#96,.T.);
#67=FACE_OUTER_BOUND('',#97,.T.);
#68=FACE_OUTER_BOUND('',#98,.T.);
#69=FACE_OUTER_BOUND('',#99,.T.);
#70=FACE_OUTER_BOUND('',#100,.T.);
#71=FACE_OUTER_BOUND('',#101,.T.);
#72=FACE_OUTER_BOUND('',#102,.T.);
#73=EDGE_LOOP('',(#293,#294,#295,#296));
#74=EDGE_LOOP('',(#297,#298,#299,#300));
#75=EDGE_LOOP('',(#301,#302,#303,#304));
#76=EDGE_LOOP('',(#305,#306,#307,#308));
#77=EDGE_LOOP('',(#309,#310,#311,#312));
#78=EDGE_LOOP('',(#313,#314,#315,#316));
#79=EDGE_LOOP('',(#317,#318,#319,#320));
#80=EDGE_LOOP('',(#321));
#81=EDGE_LOOP('',(#322));
#82=EDGE_LOOP('',(#323,#324,#325,#326));
#83=EDGE_LOOP('',(#327));
#84=EDGE_LOOP('',(#328));
#85=EDGE_LOOP('',(#329,#330,#331,#332));
#86=EDGE_LOOP('',(#333,#334,#335,#336));
#87=EDGE_LOOP('',(#337,#338,#339,#340));
#88=EDGE_LOOP('',(#341,#342,#343,#344));
#89=EDGE_LOOP('',(#345,#346,#347,#348));
#90=EDGE_LOOP('',(#349,#350,#351,#352));
#91=EDGE_LOOP('',(#353,#354,#355,#356));
#92=EDGE_LOOP('',(#357,#358,#359,#360));
#93=EDGE_LOOP('',(#361,#362,#363,#364));
#94=EDGE_LOOP('',(#365,#366,#367,#368));
#95=EDGE_LOOP('',(#369,#370,#371,#372));
#96=EDGE_LOOP('',(#373,#374,#375,#376));
#97=EDGE_LOOP('',(#377,#378,#379,#380));
#98=EDGE_LOOP('',(#381,#382,#383,#384));
#99=EDGE_LOOP('',(#385,#386,#387,#388));
#100=EDGE_LOOP('',(#389,#390,#391,#392));
#101=EDGE_LOOP('',(#393,#394,#395,#396));
#102=EDGE_LOOP('',(#397,#398,#399,#400));
#103=LINE('',#612,#149);
#104=LINE('',#618,#150);
#105=LINE('',#623,#151);
#106=LINE('',#625,#152);
#107=LINE('',#627,#153);
#108=LINE('',#628,#154);
#109=LINE('',#634,#155);
#110=LINE('',#637,#156);
#111=LINE('',#639,#157);
#112=LINE('',#640,#158);
#113=LINE('',#649,#159);
#114=LINE('',#651,#160);
#115=LINE('',#653,#161);
#116=LINE('',#654,#162);
#117=LINE('',#657,#163);
#118=LINE('',#659,#164);
#119=LINE('',#660,#165);
#120=LINE('',#663,#166);
#121=LINE('',#665,#167);
#122=LINE('',#666,#168);
#123=LINE('',#668,#169);
#124=LINE('',#669,#170);
#125=LINE('',#675,#171);
#126=LINE('',#677,#172);
#127=LINE('',#679,#173);
#128=LINE('',#680,#174);
#129=LINE('',#683,#175);
#130=LINE('',#685,#176);
#131=LINE('',#686,#177);
#132=LINE('',#689,#178);
#133=LINE('',#691,#179);
#134=LINE('',#692,#180);
#135=LINE('',#694,#181);
#136=LINE('',#695,#182);
#137=LINE('',#701,#183);
#138=LINE('',#703,#184);
#139=LINE('',#705,#185);
#140=LINE('',#706,#186);
#141=LINE('',#709,#187);
#142=LINE('',#711,#188);
#143=LINE('',#712,#189);
#144=LINE('',#715,#190);
#145=LINE('',#717,#191);
#146=LINE('',#718,#192);
#147=LINE('',#720,#193);
#148=LINE('',#721,#194);
#149=VECTOR('',#497,2.);
#150=VECTOR('',#504,2.);
#151=VECTOR('',#509,10.);
#152=VECTOR('',#510,10.);
#153=VECTOR('',#511,10.);
#154=VECTOR('',#512,10.);
#155=VECTOR('',#519,10.);
#156=VECTOR('',#522,10.);
#157=VECTOR('',#523,10.);
#158=VECTOR('',#524,10.);
#159=VECTOR('',#537,10.);
#160=VECTOR('',#538,10.);
#161=VECTOR('',#539,10.);
#162=VECTOR('',#540,10.);
#163=VECTOR('',#543,10.);
#164=VECTOR('',#544,10.);
#165=VECTOR('',#545,10.);
#166=VECTOR('',#548,10.);
#167=VECTOR('',#549,10.);
#168=VECTOR('',#550,10.);
#169=VECTOR('',#553,10.);
#170=VECTOR('',#554,10.);
#171=VECTOR('',#561,10.);
#172=VECTOR('',#562,10.);
#173=VECTOR('',#563,10.);
#174=VECTOR('',#564,10.);
#175=VECTOR('',#567,10.);
#176=VECTOR('',#568,10.);
#177=VECTOR('',#569,10.);
#178=VECTOR('',#572,10.);
#179=VECTOR('',#573,10.);
#180=VECTOR('',#574,10.);
#181=VECTOR('',#577,10.);
#182=VECTOR('',#578,10.);
#183=VECTOR('',#585,10.);
#184=VECTOR('',#586,10.);
#185=VECTOR('',#587,10.);
#186=VECTOR('',#588,10.);
#187=VECTOR('',#591,10.);
#188=VECTOR('',#592,10.);
#189=VECTOR('',#593,10.);
#190=VECTOR('',#596,10.);
#191=VECTOR('',#597,10.);
#192=VECTOR('',#598,10.);
#193=VECTOR('',#601,10.);
#194=VECTOR('',#602,10.);
#195=CIRCLE('',#458,2.);
#196=CIRCLE('',#459,2.);
#197=CIRCLE('',#461,2.);
#198=CIRCLE('',#462,2.);
#199=CIRCLE('',#465,3.);
#200=CIRCLE('',#466,3.);
#201=CIRCLE('',#469,3.);
#202=CIRCLE('',#470,3.);
#203=VERTEX_POINT('',#609);
#204=VERTEX_POINT('',#611);
#205=VERTEX_POINT('',#615);
#206=VERTEX_POINT('',#617);
#207=VERTEX_POINT('',#621);
#208=VERTEX_POINT('',#622);
#209=VERTEX_POINT('',#624);
#210=VERTEX_POINT('',#626);
#211=VERTEX_POINT('',#630);
#212=VERTEX_POINT('',#632);
#213=VERTEX_POINT('',#636);
#214=VERTEX_POINT('',#638);
#215=VERTEX_POINT('',#647);
#216=VERTEX_POINT('',#648);
#217=VERTEX_POINT('',#650);
#218=VERTEX_POINT('',#652);
#219=VERTEX_POINT('',#656);
#220=VERTEX_POINT('',#658);
#221=VERTEX_POINT('',#662);
#222=VERTEX_POINT('',#664);
#223=VERTEX_POINT('',#673);
#224=VERTEX_POINT('',#674);
#225=VERTEX_POINT('',#676);
#226=VERTEX_POINT('',#678);
#227=VERTEX_POINT('',#682);
#228=VERTEX_POINT('',#684);
#229=VERTEX_POINT('',#688);
#230=VERTEX_POINT('',#690);
#231=VERTEX_POINT('',#699);
#232=VERTEX_POINT('',#700);
#233=VERTEX_POINT('',#702);
#234=VERTEX_POINT('',#704);
#235=VERTEX_POINT('',#708);
#236=VERTEX_POINT('',#710);
#237=VERTEX_POINT('',#714);
#238=VERTEX_POINT('',#716);
#239=EDGE_CURVE('',#203,#203,#195,.T.);
#240=EDGE_CURVE('',#203,#204,#103,.T.);
#241=EDGE_CURVE('',#204,#204,#196,.T.);
#242=EDGE_CURVE('',#205,#205,#197,.T.);
#243=EDGE_CURVE('',#205,#206,#104,.T.);
#244=EDGE_CURVE('',#206,#206,#198,.T.);
#245=EDGE_CURVE('',#207,#208,#105,.T.);
#246=EDGE_CURVE('',#208,#209,#106,.T.);
#247=EDGE_CURVE('',#210,#209,#107,.T.);
#248=EDGE_CURVE('',#207,#210,#108,.T.);
#249=EDGE_CURVE('',#211,#207,#199,.T.);
#250=EDGE_CURVE('',#212,#210,#200,.T.);
#251=EDGE_CURVE('',#211,#212,#109,.T.);
#252=EDGE_CURVE('',#213,#211,#110,.T.);
#253=EDGE_CURVE('',#214,#212,#111,.T.);
#254=EDGE_CURVE('',#213,#214,#112,.T.);
#255=EDGE_CURVE('',#208,#213,#201,.T.);
#256=EDGE_CURVE('',#209,#214,#202,.T.);
#257=EDGE_CURVE('',#215,#216,#113,.T.);
#258=EDGE_CURVE('',#215,#217,#114,.T.);
#259=EDGE_CURVE('',#218,#217,#115,.T.);
#260=EDGE_CURVE('',#216,#218,#116,.T.);
#261=EDGE_CURVE('',#216,#219,#117,.T.);
#262=EDGE_CURVE('',#220,#218,#118,.T.);
#263=EDGE_CURVE('',#219,#220,#119,.T.);
#264=EDGE_CURVE('',#219,#221,#120,.T.);
#265=EDGE_CURVE('',#222,#220,#121,.T.);
#266=EDGE_CURVE('',#221,#222,#122,.T.);
#267=EDGE_CURVE('',#221,#215,#123,.T.);
#268=EDGE_CURVE('',#217,#222,#124,.T.);
#269=EDGE_CURVE('',#223,#224,#125,.T.);
#270=EDGE_CURVE('',#223,#225,#126,.T.);
#271=EDGE_CURVE('',#226,#225,#127,.T.);
#272=EDGE_CURVE('',#224,#226,#128,.T.);
#273=EDGE_CURVE('',#227,#224,#129,.T.);
#274=EDGE_CURVE('',#228,#226,#130,.T.);
#275=EDGE_CURVE('',#227,#228,#131,.T.);
#276=EDGE_CURVE('',#229,#227,#132,.T.);
#277=EDGE_CURVE('',#230,#228,#133,.T.);
#278=EDGE_CURVE('',#229,#230,#134,.T.);
#279=EDGE_CURVE('',#223,#229,#135,.T.);
#280=EDGE_CURVE('',#225,#230,#136,.T.);
#281=EDGE_CURVE('',#231,#232,#137,.T.);
#282=EDGE_CURVE('',#232,#233,#138,.T.);
#283=EDGE_CURVE('',#234,#233,#139,.T.);
#284=EDGE_CURVE('',#231,#234,#140,.T.);
#285=EDGE_CURVE('',#235,#231,#141,.T.);
#286=EDGE_CURVE('',#236,#234,#142,.T.);
#287=EDGE_CURVE('',#235,#236,#143,.T.);
#288=EDGE_CURVE('',#237,#235,#144,.T.);
#289=EDGE_CURVE('',#238,#236,#145,.T.);
#290=EDGE_CURVE('',#237,#238,#146,.T.);
#291=EDGE_CURVE('',#232,#237,#147,.T.);
#292=EDGE_CURVE('',#233,#238,#148,.T.);
#293=ORIENTED_EDGE('',*,*,#239,.T.);
#294=ORIENTED_EDGE('',*,*,#240,.T.);
#295=ORIENTED_EDGE('',*,*,#241,.F.);
#296=ORIENTED_EDGE('',*,*,#240,.F.);
#297=ORIENTED_EDGE('',*,*,#242,.T.);
#298=ORIENTED_EDGE('',*,*,#243,.T.);
#299=ORIENTED_EDGE('',*,*,#244,.F.);
#300=ORIENTED_EDGE('',*,*,#243,.F.);
#301=ORIENTED_EDGE('',*,*,#245,.T.);
#302=ORIENTED_EDGE('',*,*,#246,.T.);
#303=ORIENTED_EDGE('',*,*,#247,.F.);
#304=ORIENTED_EDGE('',*,*,#248,.F.);
#305=ORIENTED_EDGE('',*,*,#249,.T.);
#306=ORIENTED_EDGE('',*,*,#248,.T.);
#307=ORIENTED_EDGE('',*,*,#250,.F.);
#308=ORIENTED_EDGE('',*,*,#251,.F.);
#309=ORIENTED_EDGE('',*,*,#252,.T.);
#310=ORIENTED_EDGE('',*,*,#251,.T.);
#311=ORIENTED_EDGE('',*,*,#253,.F.);
#312=ORIENTED_EDGE('',*,*,#254,.F.);
#313=ORIENTED_EDGE('',*,*,#255,.T.);
#314=ORIENTED_EDGE('',*,*,#254,.T.);
#315=ORIENTED_EDGE('',*,*,#256,.F.);
#316=ORIENTED_EDGE('',*,*,#246,.F.);
#317=ORIENTED_EDGE('',*,*,#256,.T.);
#318=ORIENTED_EDGE('',*,*,#253,.T.);
#319=ORIENTED_EDGE('',*,*,#250,.T.);
#320=ORIENTED_EDGE('',*,*,#247,.T.);
#321=ORIENTED_EDGE('',*,*,#244,.T.);
#322=ORIENTED_EDGE('',*,*,#241,.T.);
#323=ORIENTED_EDGE('',*,*,#255,.F.);
#324=ORIENTED_EDGE('',*,*,#245,.F.);
#325=ORIENTED_EDGE('',*,*,#249,.F.);
#326=ORIENTED_EDGE('',*,*,#252,.F.);
#327=ORIENTED_EDGE('',*,*,#242,.F.);
#328=ORIENTED_EDGE('',*,*,#239,.F.);
#329=ORIENTED_EDGE('',*,*,#257,.F.);
#330=ORIENTED_EDGE('',*,*,#258,.T.);
#331=ORIENTED_EDGE('',*,*,#259,.F.);
#332=ORIENTED_EDGE('',*,*,#260,.F.);
#333=ORIENTED_EDGE('',*,*,#261,.F.);
#334=ORIENTED_EDGE('',*,*,#260,.T.);
#335=ORIENTED_EDGE('',*,*,#262,.F.);
#336=ORIENTED_EDGE('',*,*,#263,.F.);
#337=ORIENTED_EDGE('',*,*,#264,.F.);
#338=ORIENTED_EDGE('',*,*,#263,.T.);
#339=ORIENTED_EDGE('',*,*,#265,.F.);
#340=ORIENTED_EDGE('',*,*,#266,.F.);
#341=ORIENTED_EDGE('',*,*,#267,.F.);
#342=ORIENTED_EDGE('',*,*,#266,.T.);
#343=ORIENTED_EDGE('',*,*,#268,.F.);
#344=ORIENTED_EDGE('',*,*,#258,.F.);
#345=ORIENTED_EDGE('',*,*,#268,.T.);
#346=ORIENTED_EDGE('',*,*,#265,.T.);
#347=ORIENTED_EDGE('',*,*,#262,.T.);
#348=ORIENTED_EDGE('',*,*,#259,.T.);
#349=ORIENTED_EDGE('',*,*,#267,.T.);
#350=ORIENTED_EDGE('',*,*,#257,.T.);
#351=ORIENTED_EDGE('',*,*,#261,.T.);
#352=ORIENTED_EDGE('',*,*,#264,.T.);
#353=ORIENTED_EDGE('',*,*,#269,.F.);
#354=ORIENTED_EDGE('',*,*,#270,.T.);
#355=ORIENTED_EDGE('',*,*,#271,.F.);
#356=ORIENTED_EDGE('',*,*,#272,.F.);
#357=ORIENTED_EDGE('',*,*,#273,.T.);
#358=ORIENTED_EDGE('',*,*,#272,.T.);
#359=ORIENTED_EDGE('',*,*,#274,.F.);
#360=ORIENTED_EDGE('',*,*,#275,.F.);
#361=ORIENTED_EDGE('',*,*,#276,.T.);
#362=ORIENTED_EDGE('',*,*,#275,.T.);
#363=ORIENTED_EDGE('',*,*,#277,.F.);
#364=ORIENTED_EDGE('',*,*,#278,.F.);
#365=ORIENTED_EDGE('',*,*,#279,.T.);
#366=ORIENTED_EDGE('',*,*,#278,.T.);
#367=ORIENTED_EDGE('',*,*,#280,.F.);
#368=ORIENTED_EDGE('',*,*,#270,.F.);
#369=ORIENTED_EDGE('',*,*,#280,.T.);
#370=ORIENTED_EDGE('',*,*,#277,.T.);
#371=ORIENTED_EDGE('',*,*,#274,.T.);
#372=ORIENTED_EDGE('',*,*,#271,.T.);
#373=ORIENTED_EDGE('',*,*,#279,.F.);
#374=ORIENTED_EDGE('',*,*,#269,.T.);
#375=ORIENTED_EDGE('',*,*,#273,.F.);
#376=ORIENTED_EDGE('',*,*,#276,.F.);
#377=ORIENTED_EDGE('',*,*,#281,.T.);
#378=ORIENTED_EDGE('',*,*,#282,.T.);
#379=ORIENTED_EDGE('',*,*,#283,.F.);
#380=ORIENTED_EDGE('',*,*,#284,.F.);
#381=ORIENTED_EDGE('',*,*,#285,.T.);
#382=ORIENTED_EDGE('',*,*,#284,.T.);
#383=ORIENTED_EDGE('',*,*,#286,.F.);
#384=ORIENTED_EDGE('',*,*,#287,.F.);
#385=ORIENTED_EDGE('',*,*,#288,.T.);
#386=ORIENTED_EDGE('',*,*,#287,.T.);
#387=ORIENTED_EDGE('',*,*,#289,.F.);
#388=ORIENTED_EDGE('',*,*,#290,.F.);
#389=ORIENTED_EDGE('',*,*,#291,.T.);
#390=ORIENTED_EDGE('',*,*,#290,.T.);
#391=ORIENTED_EDGE('',*,*,#292,.F.);
#392=ORIENTED_EDGE('',*,*,#282,.F.);
#393=ORIENTED_EDGE('',*,*,#292,.T.);
#394=ORIENTED_EDGE('',*,*,#289,.T.);
#395=ORIENTED_EDGE('',*,*,#286,.T.);
#396=ORIENTED_EDGE('',*,*,#283,.T.);
#397=ORIENTED_EDGE('',*,*,#291,.F.);
#398=ORIENTED_EDGE('',*,*,#281,.F.);
#399=ORIENTED_EDGE('',*,*,#285,.F.);
#400=ORIENTED_EDGE('',*,*,#288,.F.);
#401=CYLINDRICAL_SURFACE('',#457,2.);
#402=CYLINDRICAL_SURFACE('',#460,2.);
#403=CYLINDRICAL_SURFACE('',#464,3.);
#404=CYLINDRICAL_SURFACE('',#468,3.);
#405=ADVANCED_FACE('',(#47),#401,.F.);
#406=ADVANCED_FACE('',(#48),#402,.F.);
#407=ADVANCED_FACE('',(#49),#25,.T.);
#408=ADVANCED_FACE('',(#50),#403,.T.);
#409=ADVANCED_FACE('',(#51),#26,.T.);
#410=ADVANCED_FACE('',(#52),#404,.T.);
#411=ADVANCED_FACE('',(#53,#21,#22),#27,.T.);
#412=ADVANCED_FACE('',(#54,#23,#24),#28,.F.);
#413=ADVANCED_FACE('',(#55),#29,.T.);
#414=ADVANCED_FACE('',(#56),#30,.T.);
#415=ADVANCED_FACE('',(#57),#31,.T.);
#416=ADVANCED_FACE('',(#58),#32,.T.);
#417=ADVANCED_FACE('',(#59),#33,.T.);
#418=ADVANCED_FACE('',(#60),#34,.F.);
#419=ADVANCED_FACE('',(#61),#35,.T.);
#420=ADVANCED_FACE('',(#62),#36,.T.);
#421=ADVANCED_FACE('',(#63),#37,.T.);
#422=ADVANCED_FACE('',(#64),#38,.T.);
#423=ADVANCED_FACE('',(#65),#39,.T.);
#424=ADVANCED_FACE('',(#66),#40,.F.);
#425=ADVANCED_FACE('',(#67),#41,.T.);
#426=ADVANCED_FACE('',(#68),#42,.T.);
#427=ADVANCED_FACE('',(#69),#43,.T.);
#428=ADVANCED_FACE('',(#70),#44,.T.);
#429=ADVANCED_FACE('',(#71),#45,.T.);
#430=ADVANCED_FACE('',(#72),#46,.F.);
#431=CLOSED_SHELL('',(#405,#406,#407,#408,#409,#410,#411,#412));
#432=CLOSED_SHELL('',(#413,#414,#415,#416,#417,#418));
#433=CLOSED_SHELL('',(#419,#420,#421,#422,#423,#424));
#434=CLOSED_SHELL('',(#425,#426,#427,#428,#429,#430));
#435=DERIVED_UNIT_ELEMENT(#438,1.);
#436=DERIVED_UNIT_ELEMENT(#729,-3.);
#437=DIMENSIONAL_EXPONENTS(0.,1.,0.,0.,0.,0.,0.);
#438=(
CONVERSION_BASED_UNIT('gram',#440)
MASS_UNIT()
NAMED_UNIT(#437)
);
#439=(
MASS_UNIT()
NAMED_UNIT(*)
SI_UNIT(.KILO.,.GRAM.)
);
#440=MASS_MEASURE_WITH_UNIT(MASS_MEASURE(0.001),#439);
#441=DERIVED_UNIT((#435,#436));
#442=MEASURE_REPRESENTATION_ITEM('density measure',
POSITIVE_RATIO_MEASURE(7.85),#441);
#443=PROPERTY_DEFINITION_REPRESENTATION(#448,#445);
#444=PROPERTY_DEFINITION_REPRESENTATION(#449,#446);
#445=REPRESENTATION('material name',(#447),#726);
#446=REPRESENTATION('density',(#442),#726);
#447=DESCRIPTIVE_REPRESENTATION_ITEM('Stahl','Stahl');
#448=PROPERTY_DEFINITION('material property','material name',#736);
#449=PROPERTY_DEFINITION('material property','density of part',#736);
#450=DATE_TIME_ROLE('creation_date');
#451=APPLIED_DATE_AND_TIME_ASSIGNMENT(#452,#450,(#736));
#452=DATE_AND_TIME(#453,#454);
#453=CALENDAR_DATE(2025,3,10);
#454=LOCAL_TIME(0,0,0.,#455);
#455=COORDINATED_UNIVERSAL_TIME_OFFSET(0,0,.BEHIND.);
#456=AXIS2_PLACEMENT_3D('',#607,#491,#492);
#457=AXIS2_PLACEMENT_3D('',#608,#493,#494);
#458=AXIS2_PLACEMENT_3D('',#610,#495,#496);
#459=AXIS2_PLACEMENT_3D('',#613,#498,#499);
#460=AXIS2_PLACEMENT_3D('',#614,#500,#501);
#461=AXIS2_PLACEMENT_3D('',#616,#502,#503);
#462=AXIS2_PLACEMENT_3D('',#619,#505,#506);
#463=AXIS2_PLACEMENT_3D('',#620,#507,#508);
#464=AXIS2_PLACEMENT_3D('',#629,#513,#514);
#465=AXIS2_PLACEMENT_3D('',#631,#515,#516);
#466=AXIS2_PLACEMENT_3D('',#633,#517,#518);
#467=AXIS2_PLACEMENT_3D('',#635,#520,#521);
#468=AXIS2_PLACEMENT_3D('',#641,#525,#526);
#469=AXIS2_PLACEMENT_3D('',#642,#527,#528);
#470=AXIS2_PLACEMENT_3D('',#643,#529,#530);
#471=AXIS2_PLACEMENT_3D('',#644,#531,#532);
#472=AXIS2_PLACEMENT_3D('',#645,#533,#534);
#473=AXIS2_PLACEMENT_3D('',#646,#535,#536);
#474=AXIS2_PLACEMENT_3D('',#655,#541,#542);
#475=AXIS2_PLACEMENT_3D('',#661,#546,#547);
#476=AXIS2_PLACEMENT_3D('',#667,#551,#552);
#477=AXIS2_PLACEMENT_3D('',#670,#555,#556);
#478=AXIS2_PLACEMENT_3D('',#671,#557,#558);
#479=AXIS2_PLACEMENT_3D('',#672,#559,#560);
#480=AXIS2_PLACEMENT_3D('',#681,#565,#566);
#481=AXIS2_PLACEMENT_3D('',#687,#570,#571);
#482=AXIS2_PLACEMENT_3D('',#693,#575,#576);
#483=AXIS2_PLACEMENT_3D('',#696,#579,#580);
#484=AXIS2_PLACEMENT_3D('',#697,#581,#582);
#485=AXIS2_PLACEMENT_3D('',#698,#583,#584);
#486=AXIS2_PLACEMENT_3D('',#707,#589,#590);
#487=AXIS2_PLACEMENT_3D('',#713,#594,#595);
#488=AXIS2_PLACEMENT_3D('',#719,#599,#600);
#489=AXIS2_PLACEMENT_3D('',#722,#603,#604);
#490=AXIS2_PLACEMENT_3D('',#723,#605,#606);
#491=DIRECTION('axis',(0.,0.,1.));
#492=DIRECTION('refdir',(1.,0.,0.));
#493=DIRECTION('center_axis',(0.,0.,1.));
#494=DIRECTION('ref_axis',(1.,0.,0.));
#495=DIRECTION('center_axis',(0.,0.,-1.));
#496=DIRECTION('ref_axis',(1.,0.,0.));
#497=DIRECTION('',(0.,0.,1.));
#498=DIRECTION('center_axis',(0.,0.,-1.));
#499=DIRECTION('ref_axis',(1.,0.,0.));
#500=DIRECTION('center_axis',(0.,0.,1.));
#501=DIRECTION('ref_axis',(1.,0.,0.));
#502=DIRECTION('center_axis',(0.,0.,-1.));
#503=DIRECTION('ref_axis',(1.,0.,0.));
#504=DIRECTION('',(0.,0.,1.));
#505=DIRECTION('center_axis',(0.,0.,-1.));
#506=DIRECTION('ref_axis',(1.,0.,0.));
#507=DIRECTION('center_axis',(0.,-1.,0.));
#508=DIRECTION('ref_axis',(1.,0.,0.));
#509=DIRECTION('',(1.,0.,0.));
#510=DIRECTION('',(0.,0.,1.));
#511=DIRECTION('',(1.,0.,0.));
#512=DIRECTION('',(0.,0.,1.));
#513=DIRECTION('center_axis',(0.,0.,1.));
#514=DIRECTION('ref_axis',(0.,1.,0.));
#515=DIRECTION('center_axis',(0.,0.,1.));
#516=DIRECTION('ref_axis',(0.,1.,0.));
#517=DIRECTION('center_axis',(0.,0.,1.));
#518=DIRECTION('ref_axis',(0.,1.,0.));
#519=DIRECTION('',(0.,0.,1.));
#520=DIRECTION('center_axis',(0.,1.,0.));
#521=DIRECTION('ref_axis',(-1.,0.,0.));
#522=DIRECTION('',(-1.,0.,0.));
#523=DIRECTION('',(-1.,0.,0.));
#524=DIRECTION('',(0.,0.,1.));
#525=DIRECTION('center_axis',(0.,0.,1.));
#526=DIRECTION('ref_axis',(0.,-1.,0.));
#527=DIRECTION('center_axis',(0.,0.,1.));
#528=DIRECTION('ref_axis',(0.,-1.,0.));
#529=DIRECTION('center_axis',(0.,0.,1.));
#530=DIRECTION('ref_axis',(0.,-1.,0.));
#531=DIRECTION('center_axis',(0.,0.,1.));
#532=DIRECTION('ref_axis',(1.,0.,0.));
#533=DIRECTION('center_axis',(0.,0.,1.));
#534=DIRECTION('ref_axis',(1.,0.,0.));
#535=DIRECTION('center_axis',(-1.,0.,0.));
#536=DIRECTION('ref_axis',(0.,-1.,0.));
#537=DIRECTION('',(0.,1.,0.));
#538=DIRECTION('',(0.,0.,1.));
#539=DIRECTION('',(0.,-1.,0.));
#540=DIRECTION('',(0.,0.,1.));
#541=DIRECTION('center_axis',(0.,1.,0.));
#542=DIRECTION('ref_axis',(-1.,0.,0.));
#543=DIRECTION('',(1.,0.,0.));
#544=DIRECTION('',(-1.,0.,0.));
#545=DIRECTION('',(0.,0.,1.));
#546=DIRECTION('center_axis',(1.,2.77555756156289E-16,0.));
#547=DIRECTION('ref_axis',(-2.77555756156289E-16,1.,0.));
#548=DIRECTION('',(2.77555756156289E-16,-1.,0.));
#549=DIRECTION('',(-2.77555756156289E-16,1.,0.));
#550=DIRECTION('',(0.,0.,1.));
#551=DIRECTION('center_axis',(0.,-1.,0.));
#552=DIRECTION('ref_axis',(1.,0.,0.));
#553=DIRECTION('',(-1.,0.,0.));
#554=DIRECTION('',(1.,0.,0.));
#555=DIRECTION('center_axis',(0.,0.,1.));
#556=DIRECTION('ref_axis',(1.,0.,0.));
#557=DIRECTION('center_axis',(0.,0.,1.));
#558=DIRECTION('ref_axis',(-1.,0.,0.));
#559=DIRECTION('center_axis',(-1.,0.,0.));
#560=DIRECTION('ref_axis',(0.,1.,0.));
#561=DIRECTION('',(0.,-1.,0.));
#562=DIRECTION('',(0.,0.,-1.));
#563=DIRECTION('',(0.,1.,0.));
#564=DIRECTION('',(0.,0.,-1.));
#565=DIRECTION('center_axis',(8.32667268468868E-16,-1.,0.));
#566=DIRECTION('ref_axis',(-1.,-8.32667268468868E-16,0.));
#567=DIRECTION('',(-1.,-8.32667268468868E-16,0.));
#568=DIRECTION('',(-1.,-8.32667268468868E-16,0.));
#569=DIRECTION('',(0.,0.,-1.));
#570=DIRECTION('center_axis',(1.,-2.77555756156289E-16,0.));
#571=DIRECTION('ref_axis',(-2.77555756156289E-16,-1.,0.));
#572=DIRECTION('',(-2.77555756156289E-16,-1.,0.));
#573=DIRECTION('',(-2.77555756156289E-16,-1.,0.));
#574=DIRECTION('',(0.,0.,-1.));
#575=DIRECTION('center_axis',(0.,1.,0.));
#576=DIRECTION('ref_axis',(1.,0.,0.));
#577=DIRECTION('',(1.,0.,0.));
#578=DIRECTION('',(1.,0.,0.));
#579=DIRECTION('center_axis',(0.,0.,-1.));
#580=DIRECTION('ref_axis',(-1.,0.,0.));
#581=DIRECTION('center_axis',(0.,0.,-1.));
#582=DIRECTION('ref_axis',(1.,0.,0.));
#583=DIRECTION('center_axis',(1.,0.,0.));
#584=DIRECTION('ref_axis',(0.,-1.,0.));
#585=DIRECTION('',(0.,-1.,0.));
#586=DIRECTION('',(0.,0.,-1.));
#587=DIRECTION('',(0.,-1.,0.));
#588=DIRECTION('',(0.,0.,-1.));
#589=DIRECTION('center_axis',(2.77555756156289E-16,1.,0.));
#590=DIRECTION('ref_axis',(1.,-2.77555756156289E-16,0.));
#591=DIRECTION('',(1.,-2.77555756156289E-16,0.));
#592=DIRECTION('',(1.,-2.77555756156289E-16,0.));
#593=DIRECTION('',(0.,0.,-1.));
#594=DIRECTION('center_axis',(-1.,1.85037170770859E-16,0.));
#595=DIRECTION('ref_axis',(1.85037170770859E-16,1.,0.));
#596=DIRECTION('',(1.85037170770859E-16,1.,0.));
#597=DIRECTION('',(1.85037170770859E-16,1.,0.));
#598=DIRECTION('',(0.,0.,-1.));
#599=DIRECTION('center_axis',(-1.11022302462516E-15,-1.,0.));
#600=DIRECTION('ref_axis',(-1.,1.11022302462516E-15,0.));
#601=DIRECTION('',(-1.,1.11022302462516E-15,0.));
#602=DIRECTION('',(-1.,1.11022302462516E-15,0.));
#603=DIRECTION('center_axis',(0.,0.,-1.));
#604=DIRECTION('ref_axis',(-1.,0.,0.));
#605=DIRECTION('center_axis',(0.,0.,-1.));
#606=DIRECTION('ref_axis',(1.,0.,0.));
#607=CARTESIAN_POINT('',(0.,0.,0.));
#608=CARTESIAN_POINT('Origin',(-8.75,0.,0.));
#609=CARTESIAN_POINT('',(-10.75,-2.44929359829471E-16,0.));
#610=CARTESIAN_POINT('Origin',(-8.75,0.,0.));
#611=CARTESIAN_POINT('',(-10.75,-2.44929359829471E-16,1.));
#612=CARTESIAN_POINT('',(-10.75,-2.44929359829471E-16,0.));
#613=CARTESIAN_POINT('Origin',(-8.75,0.,1.));
#614=CARTESIAN_POINT('Origin',(8.75,0.,0.));
#615=CARTESIAN_POINT('',(6.75,-2.44929359829471E-16,0.));
#616=CARTESIAN_POINT('Origin',(8.75,0.,0.));
#617=CARTESIAN_POINT('',(6.75,-2.44929359829471E-16,1.));
#618=CARTESIAN_POINT('',(6.75,-2.44929359829471E-16,0.));
#619=CARTESIAN_POINT('Origin',(8.75,0.,1.));
#620=CARTESIAN_POINT('Origin',(-8.75,-3.,0.));
#621=CARTESIAN_POINT('',(-8.75,-3.,0.));
#622=CARTESIAN_POINT('',(8.75,-3.,0.));
#623=CARTESIAN_POINT('',(-8.75,-3.,0.));
#624=CARTESIAN_POINT('',(8.75,-3.,1.));
#625=CARTESIAN_POINT('',(8.75,-3.,0.));
#626=CARTESIAN_POINT('',(-8.75,-3.,1.));
#627=CARTESIAN_POINT('',(-8.75,-3.,1.));
#628=CARTESIAN_POINT('',(-8.75,-3.,0.));
#629=CARTESIAN_POINT('Origin',(-8.75,0.,0.));
#630=CARTESIAN_POINT('',(-8.75,3.,0.));
#631=CARTESIAN_POINT('Origin',(-8.75,0.,0.));
#632=CARTESIAN_POINT('',(-8.75,3.,1.));
#633=CARTESIAN_POINT('Origin',(-8.75,0.,1.));
#634=CARTESIAN_POINT('',(-8.75,3.,0.));
#635=CARTESIAN_POINT('Origin',(8.75,3.,0.));
#636=CARTESIAN_POINT('',(8.75,3.,0.));
#637=CARTESIAN_POINT('',(8.75,3.,0.));
#638=CARTESIAN_POINT('',(8.75,3.,1.));
#639=CARTESIAN_POINT('',(8.75,3.,1.));
#640=CARTESIAN_POINT('',(8.75,3.,0.));
#641=CARTESIAN_POINT('Origin',(8.75,0.,0.));
#642=CARTESIAN_POINT('Origin',(8.75,0.,0.));
#643=CARTESIAN_POINT('Origin',(8.75,0.,1.));
#644=CARTESIAN_POINT('Origin',(0.,0.,1.));
#645=CARTESIAN_POINT('Origin',(0.,0.,0.));
#646=CARTESIAN_POINT('Origin',(-3.,1.25,1.));
#647=CARTESIAN_POINT('',(-3.,-2.75,1.));
#648=CARTESIAN_POINT('',(-3.,1.25,1.));
#649=CARTESIAN_POINT('',(-3.,-2.75,1.));
#650=CARTESIAN_POINT('',(-3.,-2.75,7.));
#651=CARTESIAN_POINT('',(-3.,-2.75,1.));
#652=CARTESIAN_POINT('',(-3.,1.25,7.));
#653=CARTESIAN_POINT('',(-3.,-2.75,7.));
#654=CARTESIAN_POINT('',(-3.,1.25,1.));
#655=CARTESIAN_POINT('Origin',(3.,1.25,1.));
#656=CARTESIAN_POINT('',(3.,1.25,1.));
#657=CARTESIAN_POINT('',(-3.,1.25,1.));
#658=CARTESIAN_POINT('',(3.,1.25,7.));
#659=CARTESIAN_POINT('',(-3.,1.25,7.));
#660=CARTESIAN_POINT('',(3.,1.25,1.));
#661=CARTESIAN_POINT('Origin',(3.,-2.75,1.));
#662=CARTESIAN_POINT('',(3.,-2.75,1.));
#663=CARTESIAN_POINT('',(3.,1.25,1.));
#664=CARTESIAN_POINT('',(3.,-2.75,7.));
#665=CARTESIAN_POINT('',(3.,1.25,7.));
#666=CARTESIAN_POINT('',(3.,-2.75,1.));
#667=CARTESIAN_POINT('Origin',(-3.,-2.75,1.));
#668=CARTESIAN_POINT('',(3.,-2.75,1.));
#669=CARTESIAN_POINT('',(3.,-2.75,7.));
#670=CARTESIAN_POINT('Origin',(5.55111512312578E-16,-0.75,7.));
#671=CARTESIAN_POINT('Origin',(5.55111512312578E-16,-0.75,1.));
#672=CARTESIAN_POINT('Origin',(-3.,-1.5,0.));
#673=CARTESIAN_POINT('',(-3.,1.5,0.));
#674=CARTESIAN_POINT('',(-3.,-1.5,0.));
#675=CARTESIAN_POINT('',(-3.,1.25,0.));
#676=CARTESIAN_POINT('',(-3.,1.5,-1.));
#677=CARTESIAN_POINT('',(-3.,1.5,0.));
#678=CARTESIAN_POINT('',(-3.,-1.5,-1.));
#679=CARTESIAN_POINT('',(-3.,1.25,-1.));
#680=CARTESIAN_POINT('',(-3.,-1.5,0.));
#681=CARTESIAN_POINT('Origin',(-2.,-1.5,0.));
#682=CARTESIAN_POINT('',(-2.,-1.5,0.));
#683=CARTESIAN_POINT('',(-2.,-1.5,0.));
#684=CARTESIAN_POINT('',(-2.,-1.5,-1.));
#685=CARTESIAN_POINT('',(-2.,-1.5,-1.));
#686=CARTESIAN_POINT('',(-2.,-1.5,0.));
#687=CARTESIAN_POINT('Origin',(-2.,1.5,0.));
#688=CARTESIAN_POINT('',(-2.,1.5,0.));
#689=CARTESIAN_POINT('',(-2.,1.5,0.));
#690=CARTESIAN_POINT('',(-2.,1.5,-1.));
#691=CARTESIAN_POINT('',(-2.,1.5,-1.));
#692=CARTESIAN_POINT('',(-2.,1.5,0.));
#693=CARTESIAN_POINT('Origin',(-3.,1.5,0.));
#694=CARTESIAN_POINT('',(-3.,1.5,0.));
#695=CARTESIAN_POINT('',(-3.,1.5,-1.));
#696=CARTESIAN_POINT('Origin',(-2.5,0.,-1.));
#697=CARTESIAN_POINT('Origin',(-2.5,0.,0.));
#698=CARTESIAN_POINT('Origin',(3.,1.5,0.));
#699=CARTESIAN_POINT('',(3.,1.5,0.));
#700=CARTESIAN_POINT('',(3.,-1.5,0.));
#701=CARTESIAN_POINT('',(3.,1.5,0.));
#702=CARTESIAN_POINT('',(3.,-1.5,-1.));
#703=CARTESIAN_POINT('',(3.,-1.5,0.));
#704=CARTESIAN_POINT('',(3.,1.5,-1.));
#705=CARTESIAN_POINT('',(3.,1.5,-1.));
#706=CARTESIAN_POINT('',(3.,1.5,0.));
#707=CARTESIAN_POINT('Origin',(2.,1.5,0.));
#708=CARTESIAN_POINT('',(2.,1.5,0.));
#709=CARTESIAN_POINT('',(2.,1.5,0.));
#710=CARTESIAN_POINT('',(2.,1.5,-1.));
#711=CARTESIAN_POINT('',(2.,1.5,-1.));
#712=CARTESIAN_POINT('',(2.,1.5,0.));
#713=CARTESIAN_POINT('Origin',(2.,-1.5,0.));
#714=CARTESIAN_POINT('',(2.,-1.5,0.));
#715=CARTESIAN_POINT('',(2.,-1.5,0.));
#716=CARTESIAN_POINT('',(2.,-1.5,-1.));
#717=CARTESIAN_POINT('',(2.,-1.5,-1.));
#718=CARTESIAN_POINT('',(2.,-1.5,0.));
#719=CARTESIAN_POINT('Origin',(3.,-1.5,0.));
#720=CARTESIAN_POINT('',(3.,-1.5,0.));
#721=CARTESIAN_POINT('',(3.,-1.5,-1.));
#722=CARTESIAN_POINT('Origin',(2.5,-2.77555756156289E-16,-1.));
#723=CARTESIAN_POINT('Origin',(2.5,-2.77555756156289E-16,0.));
#724=UNCERTAINTY_MEASURE_WITH_UNIT(LENGTH_MEASURE(0.01),#728,
'DISTANCE_ACCURACY_VALUE',
'Maximum model space distance between geometric entities at asserted c
onnectivities');
#725=UNCERTAINTY_MEASURE_WITH_UNIT(LENGTH_MEASURE(0.01),#728,
'DISTANCE_ACCURACY_VALUE',
'Maximum model space distance between geometric entities at asserted c
onnectivities');
#726=(
GEOMETRIC_REPRESENTATION_CONTEXT(3)
GLOBAL_UNCERTAINTY_ASSIGNED_CONTEXT((#724))
GLOBAL_UNIT_ASSIGNED_CONTEXT((#728,#730,#731))
REPRESENTATION_CONTEXT('','3D')
);
#727=(
GEOMETRIC_REPRESENTATION_CONTEXT(3)
GLOBAL_UNCERTAINTY_ASSIGNED_CONTEXT((#725))
GLOBAL_UNIT_ASSIGNED_CONTEXT((#728,#730,#731))
REPRESENTATION_CONTEXT('','3D')
);
#728=(
LENGTH_UNIT()
NAMED_UNIT(*)
SI_UNIT(.MILLI.,.METRE.)
);
#729=(
LENGTH_UNIT()
NAMED_UNIT(*)
SI_UNIT(.CENTI.,.METRE.)
);
#730=(
NAMED_UNIT(*)
PLANE_ANGLE_UNIT()
SI_UNIT($,.RADIAN.)
);
#731=(
NAMED_UNIT(*)
SI_UNIT($,.STERADIAN.)
SOLID_ANGLE_UNIT()
);
#732=SHAPE_DEFINITION_REPRESENTATION(#733,#734);
#733=PRODUCT_DEFINITION_SHAPE('',$,#736);
#734=SHAPE_REPRESENTATION('',(#456),#726);
#735=PRODUCT_DEFINITION_CONTEXT('part definition',#740,'design');
#736=PRODUCT_DEFINITION('Extruder LED','Extruder LED v2',#737,#735);
#737=PRODUCT_DEFINITION_FORMATION('',$,#742);
#738=PRODUCT_RELATED_PRODUCT_CATEGORY('Extruder LED v2',
'Extruder LED v2',(#742));
#739=APPLICATION_PROTOCOL_DEFINITION('international standard',
'automotive_design',2009,#740);
#740=APPLICATION_CONTEXT(
'Core Data for Automotive Mechanical Design Process');
#741=PRODUCT_CONTEXT('part definition',#740,'mechanical');
#742=PRODUCT('Extruder LED','Extruder LED v2',$,(#741));
#743=PRESENTATION_STYLE_ASSIGNMENT((#747));
#744=PRESENTATION_STYLE_ASSIGNMENT((#748));
#745=PRESENTATION_STYLE_ASSIGNMENT((#749));
#746=PRESENTATION_STYLE_ASSIGNMENT((#750));
#747=SURFACE_STYLE_USAGE(.BOTH.,#759);
#748=SURFACE_STYLE_USAGE(.BOTH.,#760);
#749=SURFACE_STYLE_USAGE(.BOTH.,#761);
#750=SURFACE_STYLE_USAGE(.BOTH.,#762);
#751=SURFACE_STYLE_RENDERING_WITH_PROPERTIES($,#775,(#755));
#752=SURFACE_STYLE_RENDERING_WITH_PROPERTIES($,#776,(#756));
#753=SURFACE_STYLE_RENDERING_WITH_PROPERTIES($,#777,(#757));
#754=SURFACE_STYLE_RENDERING_WITH_PROPERTIES($,#778,(#758));
#755=SURFACE_STYLE_TRANSPARENT(0.);
#756=SURFACE_STYLE_TRANSPARENT(0.);
#757=SURFACE_STYLE_TRANSPARENT(0.);
#758=SURFACE_STYLE_TRANSPARENT(0.);
#759=SURFACE_SIDE_STYLE('',(#763,#751));
#760=SURFACE_SIDE_STYLE('',(#764,#752));
#761=SURFACE_SIDE_STYLE('',(#765,#753));
#762=SURFACE_SIDE_STYLE('',(#766,#754));
#763=SURFACE_STYLE_FILL_AREA(#767);
#764=SURFACE_STYLE_FILL_AREA(#768);
#765=SURFACE_STYLE_FILL_AREA(#769);
#766=SURFACE_STYLE_FILL_AREA(#770);
#767=FILL_AREA_STYLE('',(#771));
#768=FILL_AREA_STYLE('',(#772));
#769=FILL_AREA_STYLE('',(#773));
#770=FILL_AREA_STYLE('',(#774));
#771=FILL_AREA_STYLE_COLOUR('',#775);
#772=FILL_AREA_STYLE_COLOUR('',#776);
#773=FILL_AREA_STYLE_COLOUR('',#777);
#774=FILL_AREA_STYLE_COLOUR('',#778);
#775=COLOUR_RGB('',0.749019607843137,0.749019607843137,0.749019607843137);
#776=COLOUR_RGB('',0.768627450980392,0.207843137254902,0.152941176470588);
#777=COLOUR_RGB('',0.898039215686275,0.792156862745098,0.619607843137255);
#778=COLOUR_RGB('',0.909803921568627,0.67843137254902,0.137254901960784);
ENDSEC;
END-ISO-10303-21;
