ISO-10303-21;
HEADER;
/* Generated by software containing ST-Developer
 * from STEP Tools, Inc. (www.steptools.com) 
 */

FILE_DESCRIPTION(
/* description */ (''),
/* implementation_level */ '2;1');

FILE_NAME(
/* name */ 'Giga Extruder hotend.stp',
/* time_stamp */ '2025-10-21T12:53:14+10:00',
/* author */ ('Jcw Drafting Lab 1'),
/* organization */ (''),
/* preprocessor_version */ 'ST-DEVELOPER v20',
/* originating_system */ 'Autodesk Inventor 2025',
/* authorisation */ '');

FILE_SCHEMA (('AUTOMOTIVE_DESIGN { 1 0 10303 214 3 1 1 }'));
ENDSEC;

DATA;
#10=MECHANICAL_DESIGN_GEOMETRIC_PRESENTATION_REPRESENTATION('',(#13,#14),
#1159);
#11=SHAPE_REPRESENTATION_RELATIONSHIP('SRR','None',#1166,#12);
#12=ADVANCED_BREP_SHAPE_REPRESENTATION('',(#15,#16),#1158);
#13=STYLED_ITEM('',(#1175),#15);
#14=STYLED_ITEM('',(#1175),#16);
#15=MANIFOLD_SOLID_BREP('Solid1',#669);
#16=MANIFOLD_SOLID_BREP('Solid1',#670);
#17=FACE_BOUND('',#100,.T.);
#18=FACE_BOUND('',#103,.T.);
#19=FACE_BOUND('',#108,.T.);
#20=FACE_BOUND('',#110,.T.);
#21=FACE_BOUND('',#133,.T.);
#22=FACE_BOUND('',#140,.T.);
#23=PLANE('',#698);
#24=PLANE('',#702);
#25=PLANE('',#711);
#26=PLANE('',#712);
#27=PLANE('',#713);
#28=PLANE('',#714);
#29=PLANE('',#724);
#30=PLANE('',#731);
#31=PLANE('',#741);
#32=PLANE('',#742);
#33=PLANE('',#746);
#34=PLANE('',#748);
#35=PLANE('',#751);
#36=PLANE('',#752);
#37=PLANE('',#753);
#38=PLANE('',#754);
#39=PLANE('',#756);
#40=PLANE('',#757);
#41=PLANE('',#758);
#42=PLANE('',#759);
#43=PLANE('',#762);
#44=CYLINDRICAL_SURFACE('',#696,2.48);
#45=CYLINDRICAL_SURFACE('',#704,1.5);
#46=CYLINDRICAL_SURFACE('',#706,1.);
#47=CYLINDRICAL_SURFACE('',#708,1.75);
#48=CYLINDRICAL_SURFACE('',#715,3.);
#49=CYLINDRICAL_SURFACE('',#718,22.8405142985273);
#50=CYLINDRICAL_SURFACE('',#721,3.);
#51=CYLINDRICAL_SURFACE('',#725,3.);
#52=CYLINDRICAL_SURFACE('',#728,3.);
#53=CYLINDRICAL_SURFACE('',#732,3.);
#54=CYLINDRICAL_SURFACE('',#735,22.8405142985273);
#55=CYLINDRICAL_SURFACE('',#738,3.);
#56=CYLINDRICAL_SURFACE('',#743,1.);
#57=CYLINDRICAL_SURFACE('',#749,1.);
#58=CYLINDRICAL_SURFACE('',#760,2.5);
#59=FACE_OUTER_BOUND('',#97,.T.);
#60=FACE_OUTER_BOUND('',#98,.T.);
#61=FACE_OUTER_BOUND('',#99,.T.);
#62=FACE_OUTER_BOUND('',#101,.T.);
#63=FACE_OUTER_BOUND('',#102,.T.);
#64=FACE_OUTER_BOUND('',#104,.T.);
#65=FACE_OUTER_BOUND('',#105,.T.);
#66=FACE_OUTER_BOUND('',#106,.T.);
#67=FACE_OUTER_BOUND('',#107,.T.);
#68=FACE_OUTER_BOUND('',#109,.T.);
#69=FACE_OUTER_BOUND('',#111,.T.);
#70=FACE_OUTER_BOUND('',#112,.T.);
#71=FACE_OUTER_BOUND('',#113,.T.);
#72=FACE_OUTER_BOUND('',#114,.T.);
#73=FACE_OUTER_BOUND('',#115,.T.);
#74=FACE_OUTER_BOUND('',#116,.T.);
#75=FACE_OUTER_BOUND('',#117,.T.);
#76=FACE_OUTER_BOUND('',#118,.T.);
#77=FACE_OUTER_BOUND('',#119,.T.);
#78=FACE_OUTER_BOUND('',#120,.T.);
#79=FACE_OUTER_BOUND('',#121,.T.);
#80=FACE_OUTER_BOUND('',#122,.T.);
#81=FACE_OUTER_BOUND('',#123,.T.);
#82=FACE_OUTER_BOUND('',#124,.T.);
#83=FACE_OUTER_BOUND('',#125,.T.);
#84=FACE_OUTER_BOUND('',#126,.T.);
#85=FACE_OUTER_BOUND('',#127,.T.);
#86=FACE_OUTER_BOUND('',#128,.T.);
#87=FACE_OUTER_BOUND('',#129,.T.);
#88=FACE_OUTER_BOUND('',#130,.T.);
#89=FACE_OUTER_BOUND('',#131,.T.);
#90=FACE_OUTER_BOUND('',#132,.T.);
#91=FACE_OUTER_BOUND('',#134,.T.);
#92=FACE_OUTER_BOUND('',#135,.T.);
#93=FACE_OUTER_BOUND('',#136,.T.);
#94=FACE_OUTER_BOUND('',#137,.T.);
#95=FACE_OUTER_BOUND('',#138,.T.);
#96=FACE_OUTER_BOUND('',#139,.T.);
#97=EDGE_LOOP('',(#445,#446,#447,#448));
#98=EDGE_LOOP('',(#449,#450,#451,#452));
#99=EDGE_LOOP('',(#453));
#100=EDGE_LOOP('',(#454));
#101=EDGE_LOOP('',(#455,#456,#457,#458));
#102=EDGE_LOOP('',(#459));
#103=EDGE_LOOP('',(#460));
#104=EDGE_LOOP('',(#461,#462,#463,#464));
#105=EDGE_LOOP('',(#465,#466,#467,#468));
#106=EDGE_LOOP('',(#469,#470,#471,#472));
#107=EDGE_LOOP('',(#473));
#108=EDGE_LOOP('',(#474));
#109=EDGE_LOOP('',(#475));
#110=EDGE_LOOP('',(#476));
#111=EDGE_LOOP('',(#477,#478,#479,#480,#481));
#112=EDGE_LOOP('',(#482,#483,#484,#485));
#113=EDGE_LOOP('',(#486,#487,#488,#489));
#114=EDGE_LOOP('',(#490,#491,#492,#493));
#115=EDGE_LOOP('',(#494,#495,#496,#497));
#116=EDGE_LOOP('',(#498,#499,#500,#501));
#117=EDGE_LOOP('',(#502,#503,#504,#505));
#118=EDGE_LOOP('',(#506,#507,#508,#509));
#119=EDGE_LOOP('',(#510,#511,#512,#513));
#120=EDGE_LOOP('',(#514,#515,#516,#517));
#121=EDGE_LOOP('',(#518,#519,#520,#521));
#122=EDGE_LOOP('',(#522,#523,#524,#525));
#123=EDGE_LOOP('',(#526,#527,#528,#529));
#124=EDGE_LOOP('',(#530,#531,#532,#533));
#125=EDGE_LOOP('',(#534,#535,#536,#537));
#126=EDGE_LOOP('',(#538,#539,#540,#541));
#127=EDGE_LOOP('',(#542,#543,#544,#545));
#128=EDGE_LOOP('',(#546,#547,#548,#549));
#129=EDGE_LOOP('',(#550,#551,#552,#553,#554));
#130=EDGE_LOOP('',(#555,#556,#557,#558));
#131=EDGE_LOOP('',(#559,#560,#561,#562,#563,#564));
#132=EDGE_LOOP('',(#565,#566,#567,#568,#569,#570,#571,#572));
#133=EDGE_LOOP('',(#573));
#134=EDGE_LOOP('',(#574,#575,#576,#577,#578,#579));
#135=EDGE_LOOP('',(#580,#581,#582,#583,#584,#585,#586,#587));
#136=EDGE_LOOP('',(#588,#589,#590,#591));
#137=EDGE_LOOP('',(#592,#593,#594,#595,#596,#597,#598,#599,#600,#601,#602,
#603,#604,#605,#606,#607,#608,#609,#610,#611));
#138=EDGE_LOOP('',(#612,#613,#614,#615));
#139=EDGE_LOOP('',(#616,#617,#618,#619,#620,#621,#622,#623,#624,#625,#626,
#627));
#140=EDGE_LOOP('',(#628));
#141=LINE('',#970,#201);
#142=LINE('',#974,#202);
#143=LINE('',#982,#203);
#144=LINE('',#988,#204);
#145=LINE('',#993,#205);
#146=LINE('',#998,#206);
#147=LINE('',#1005,#207);
#148=LINE('',#1007,#208);
#149=LINE('',#1009,#209);
#150=LINE('',#1011,#210);
#151=LINE('',#1012,#211);
#152=LINE('',#1016,#212);
#153=LINE('',#1018,#213);
#154=LINE('',#1020,#214);
#155=LINE('',#1021,#215);
#156=LINE('',#1026,#216);
#157=LINE('',#1032,#217);
#158=LINE('',#1038,#218);
#159=LINE('',#1042,#219);
#160=LINE('',#1044,#220);
#161=LINE('',#1045,#221);
#162=LINE('',#1050,#222);
#163=LINE('',#1057,#223);
#164=LINE('',#1060,#224);
#165=LINE('',#1063,#225);
#166=LINE('',#1065,#226);
#167=LINE('',#1066,#227);
#168=LINE('',#1071,#228);
#169=LINE('',#1077,#229);
#170=LINE('',#1085,#230);
#171=LINE('',#1087,#231);
#172=LINE('',#1089,#232);
#173=LINE('',#1090,#233);
#174=LINE('',#1093,#234);
#175=LINE('',#1095,#235);
#176=LINE('',#1096,#236);
#177=LINE('',#1101,#237);
#178=LINE('',#1106,#238);
#179=LINE('',#1109,#239);
#180=LINE('',#1110,#240);
#181=LINE('',#1114,#241);
#182=LINE('',#1118,#242);
#183=LINE('',#1119,#243);
#184=LINE('',#1120,#244);
#185=LINE('',#1123,#245);
#186=LINE('',#1125,#246);
#187=LINE('',#1126,#247);
#188=LINE('',#1129,#248);
#189=LINE('',#1130,#249);
#190=LINE('',#1132,#250);
#191=LINE('',#1133,#251);
#192=LINE('',#1135,#252);
#193=LINE('',#1140,#253);
#194=LINE('',#1141,#254);
#195=LINE('',#1144,#255);
#196=LINE('',#1145,#256);
#197=LINE('',#1146,#257);
#198=LINE('',#1147,#258);
#199=LINE('',#1149,#259);
#200=LINE('',#1153,#260);
#201=VECTOR('',#769,2.43);
#202=VECTOR('',#774,2.48);
#203=VECTOR('',#785,2.43);
#204=VECTOR('',#792,1.5);
#205=VECTOR('',#799,1.);
#206=VECTOR('',#804,1.75);
#207=VECTOR('',#813,10.);
#208=VECTOR('',#814,10.);
#209=VECTOR('',#815,10.);
#210=VECTOR('',#816,10.);
#211=VECTOR('',#817,10.);
#212=VECTOR('',#820,10.);
#213=VECTOR('',#821,10.);
#214=VECTOR('',#822,10.);
#215=VECTOR('',#823,10.);
#216=VECTOR('',#828,10.);
#217=VECTOR('',#835,10.);
#218=VECTOR('',#842,10.);
#219=VECTOR('',#847,10.);
#220=VECTOR('',#848,10.);
#221=VECTOR('',#849,10.);
#222=VECTOR('',#854,10.);
#223=VECTOR('',#861,10.);
#224=VECTOR('',#864,10.);
#225=VECTOR('',#867,10.);
#226=VECTOR('',#868,10.);
#227=VECTOR('',#869,10.);
#228=VECTOR('',#874,10.);
#229=VECTOR('',#881,10.);
#230=VECTOR('',#892,10.);
#231=VECTOR('',#893,10.);
#232=VECTOR('',#894,10.);
#233=VECTOR('',#895,10.);
#234=VECTOR('',#898,10.);
#235=VECTOR('',#899,10.);
#236=VECTOR('',#900,10.);
#237=VECTOR('',#905,10.);
#238=VECTOR('',#912,10.);
#239=VECTOR('',#915,10.);
#240=VECTOR('',#916,10.);
#241=VECTOR('',#921,10.);
#242=VECTOR('',#924,10.);
#243=VECTOR('',#925,10.);
#244=VECTOR('',#926,10.);
#245=VECTOR('',#929,10.);
#246=VECTOR('',#930,10.);
#247=VECTOR('',#931,10.);
#248=VECTOR('',#934,10.);
#249=VECTOR('',#935,10.);
#250=VECTOR('',#936,10.);
#251=VECTOR('',#937,10.);
#252=VECTOR('',#940,10.);
#253=VECTOR('',#945,10.);
#254=VECTOR('',#946,10.);
#255=VECTOR('',#949,10.);
#256=VECTOR('',#950,10.);
#257=VECTOR('',#951,10.);
#258=VECTOR('',#952,10.);
#259=VECTOR('',#955,10.);
#260=VECTOR('',#960,2.5);
#261=CIRCLE('',#694,2.38);
#262=CIRCLE('',#695,2.48);
#263=CIRCLE('',#697,2.48);
#264=CIRCLE('',#699,1.);
#265=CIRCLE('',#701,2.38);
#266=CIRCLE('',#703,1.5);
#267=CIRCLE('',#705,1.5);
#268=CIRCLE('',#707,1.);
#269=CIRCLE('',#709,1.75);
#270=CIRCLE('',#710,1.75);
#271=CIRCLE('',#716,3.);
#272=CIRCLE('',#717,3.);
#273=CIRCLE('',#719,22.8405142985273);
#274=CIRCLE('',#720,22.8405142985273);
#275=CIRCLE('',#722,3.);
#276=CIRCLE('',#723,3.);
#277=CIRCLE('',#726,3.);
#278=CIRCLE('',#727,3.);
#279=CIRCLE('',#729,3.);
#280=CIRCLE('',#730,3.);
#281=CIRCLE('',#733,3.);
#282=CIRCLE('',#734,3.);
#283=CIRCLE('',#736,22.8405142985273);
#284=CIRCLE('',#737,22.8405142985273);
#285=CIRCLE('',#739,3.);
#286=CIRCLE('',#740,3.);
#287=CIRCLE('',#744,1.);
#288=CIRCLE('',#745,1.);
#289=CIRCLE('',#747,1.);
#290=CIRCLE('',#750,1.);
#291=CIRCLE('',#755,2.5);
#292=CIRCLE('',#761,2.5);
#293=VERTEX_POINT('',#967);
#294=VERTEX_POINT('',#969);
#295=VERTEX_POINT('',#973);
#296=VERTEX_POINT('',#977);
#297=VERTEX_POINT('',#980);
#298=VERTEX_POINT('',#984);
#299=VERTEX_POINT('',#987);
#300=VERTEX_POINT('',#991);
#301=VERTEX_POINT('',#995);
#302=VERTEX_POINT('',#997);
#303=VERTEX_POINT('',#1003);
#304=VERTEX_POINT('',#1004);
#305=VERTEX_POINT('',#1006);
#306=VERTEX_POINT('',#1008);
#307=VERTEX_POINT('',#1010);
#308=VERTEX_POINT('',#1014);
#309=VERTEX_POINT('',#1015);
#310=VERTEX_POINT('',#1017);
#311=VERTEX_POINT('',#1019);
#312=VERTEX_POINT('',#1023);
#313=VERTEX_POINT('',#1025);
#314=VERTEX_POINT('',#1029);
#315=VERTEX_POINT('',#1031);
#316=VERTEX_POINT('',#1035);
#317=VERTEX_POINT('',#1037);
#318=VERTEX_POINT('',#1041);
#319=VERTEX_POINT('',#1043);
#320=VERTEX_POINT('',#1047);
#321=VERTEX_POINT('',#1049);
#322=VERTEX_POINT('',#1053);
#323=VERTEX_POINT('',#1054);
#324=VERTEX_POINT('',#1056);
#325=VERTEX_POINT('',#1058);
#326=VERTEX_POINT('',#1062);
#327=VERTEX_POINT('',#1064);
#328=VERTEX_POINT('',#1068);
#329=VERTEX_POINT('',#1070);
#330=VERTEX_POINT('',#1074);
#331=VERTEX_POINT('',#1076);
#332=VERTEX_POINT('',#1083);
#333=VERTEX_POINT('',#1084);
#334=VERTEX_POINT('',#1086);
#335=VERTEX_POINT('',#1088);
#336=VERTEX_POINT('',#1092);
#337=VERTEX_POINT('',#1094);
#338=VERTEX_POINT('',#1098);
#339=VERTEX_POINT('',#1100);
#340=VERTEX_POINT('',#1104);
#341=VERTEX_POINT('',#1108);
#342=VERTEX_POINT('',#1112);
#343=VERTEX_POINT('',#1116);
#344=VERTEX_POINT('',#1117);
#345=VERTEX_POINT('',#1122);
#346=VERTEX_POINT('',#1124);
#347=VERTEX_POINT('',#1128);
#348=VERTEX_POINT('',#1131);
#349=VERTEX_POINT('',#1136);
#350=VERTEX_POINT('',#1139);
#351=VERTEX_POINT('',#1143);
#352=VERTEX_POINT('',#1152);
#353=EDGE_CURVE('',#293,#293,#261,.T.);
#354=EDGE_CURVE('',#293,#294,#141,.T.);
#355=EDGE_CURVE('',#294,#294,#262,.T.);
#356=EDGE_CURVE('',#294,#295,#142,.T.);
#357=EDGE_CURVE('',#295,#295,#263,.T.);
#358=EDGE_CURVE('',#296,#296,#264,.T.);
#359=EDGE_CURVE('',#297,#297,#265,.T.);
#360=EDGE_CURVE('',#297,#295,#143,.T.);
#361=EDGE_CURVE('',#298,#298,#266,.T.);
#362=EDGE_CURVE('',#298,#299,#144,.T.);
#363=EDGE_CURVE('',#299,#299,#267,.T.);
#364=EDGE_CURVE('',#300,#300,#268,.T.);
#365=EDGE_CURVE('',#300,#296,#145,.T.);
#366=EDGE_CURVE('',#301,#301,#269,.T.);
#367=EDGE_CURVE('',#301,#302,#146,.T.);
#368=EDGE_CURVE('',#302,#302,#270,.T.);
#369=EDGE_CURVE('',#303,#304,#147,.T.);
#370=EDGE_CURVE('',#305,#303,#148,.T.);
#371=EDGE_CURVE('',#306,#305,#149,.T.);
#372=EDGE_CURVE('',#307,#306,#150,.T.);
#373=EDGE_CURVE('',#307,#304,#151,.T.);
#374=EDGE_CURVE('',#308,#309,#152,.T.);
#375=EDGE_CURVE('',#308,#310,#153,.T.);
#376=EDGE_CURVE('',#311,#310,#154,.T.);
#377=EDGE_CURVE('',#309,#311,#155,.T.);
#378=EDGE_CURVE('',#312,#308,#271,.T.);
#379=EDGE_CURVE('',#312,#313,#156,.T.);
#380=EDGE_CURVE('',#310,#313,#272,.T.);
#381=EDGE_CURVE('',#314,#312,#273,.T.);
#382=EDGE_CURVE('',#314,#315,#157,.T.);
#383=EDGE_CURVE('',#313,#315,#274,.T.);
#384=EDGE_CURVE('',#316,#314,#275,.T.);
#385=EDGE_CURVE('',#316,#317,#158,.T.);
#386=EDGE_CURVE('',#315,#317,#276,.T.);
#387=EDGE_CURVE('',#318,#316,#159,.T.);
#388=EDGE_CURVE('',#318,#319,#160,.T.);
#389=EDGE_CURVE('',#317,#319,#161,.T.);
#390=EDGE_CURVE('',#320,#318,#277,.T.);
#391=EDGE_CURVE('',#320,#321,#162,.T.);
#392=EDGE_CURVE('',#319,#321,#278,.T.);
#393=EDGE_CURVE('',#322,#323,#279,.T.);
#394=EDGE_CURVE('',#322,#324,#163,.T.);
#395=EDGE_CURVE('',#325,#324,#280,.T.);
#396=EDGE_CURVE('',#323,#325,#164,.T.);
#397=EDGE_CURVE('',#326,#322,#165,.T.);
#398=EDGE_CURVE('',#326,#327,#166,.T.);
#399=EDGE_CURVE('',#324,#327,#167,.T.);
#400=EDGE_CURVE('',#328,#326,#281,.T.);
#401=EDGE_CURVE('',#328,#329,#168,.T.);
#402=EDGE_CURVE('',#327,#329,#282,.T.);
#403=EDGE_CURVE('',#330,#328,#283,.T.);
#404=EDGE_CURVE('',#330,#331,#169,.T.);
#405=EDGE_CURVE('',#329,#331,#284,.T.);
#406=EDGE_CURVE('',#309,#330,#285,.T.);
#407=EDGE_CURVE('',#331,#311,#286,.T.);
#408=EDGE_CURVE('',#332,#333,#170,.T.);
#409=EDGE_CURVE('',#334,#332,#171,.T.);
#410=EDGE_CURVE('',#335,#334,#172,.T.);
#411=EDGE_CURVE('',#335,#333,#173,.T.);
#412=EDGE_CURVE('',#306,#336,#174,.T.);
#413=EDGE_CURVE('',#337,#336,#175,.T.);
#414=EDGE_CURVE('',#337,#307,#176,.T.);
#415=EDGE_CURVE('',#305,#338,#287,.T.);
#416=EDGE_CURVE('',#338,#339,#177,.T.);
#417=EDGE_CURVE('',#339,#306,#288,.T.);
#418=EDGE_CURVE('',#336,#340,#289,.T.);
#419=EDGE_CURVE('',#339,#340,#178,.T.);
#420=EDGE_CURVE('',#340,#341,#179,.T.);
#421=EDGE_CURVE('',#341,#338,#180,.T.);
#422=EDGE_CURVE('',#341,#342,#290,.T.);
#423=EDGE_CURVE('',#342,#336,#181,.T.);
#424=EDGE_CURVE('',#343,#344,#182,.T.);
#425=EDGE_CURVE('',#343,#337,#183,.T.);
#426=EDGE_CURVE('',#344,#342,#184,.T.);
#427=EDGE_CURVE('',#344,#345,#185,.T.);
#428=EDGE_CURVE('',#345,#346,#186,.T.);
#429=EDGE_CURVE('',#346,#343,#187,.F.);
#430=EDGE_CURVE('',#347,#332,#188,.T.);
#431=EDGE_CURVE('',#347,#346,#189,.T.);
#432=EDGE_CURVE('',#348,#345,#190,.T.);
#433=EDGE_CURVE('',#334,#348,#191,.T.);
#434=EDGE_CURVE('',#348,#303,#192,.T.);
#435=EDGE_CURVE('',#349,#349,#291,.T.);
#436=EDGE_CURVE('',#350,#304,#193,.T.);
#437=EDGE_CURVE('',#350,#335,#194,.T.);
#438=EDGE_CURVE('',#333,#351,#195,.T.);
#439=EDGE_CURVE('',#321,#350,#196,.T.);
#440=EDGE_CURVE('',#323,#320,#197,.T.);
#441=EDGE_CURVE('',#351,#325,#198,.T.);
#442=EDGE_CURVE('',#351,#347,#199,.F.);
#443=EDGE_CURVE('',#349,#352,#200,.T.);
#444=EDGE_CURVE('',#352,#352,#292,.T.);
#445=ORIENTED_EDGE('',*,*,#353,.T.);
#446=ORIENTED_EDGE('',*,*,#354,.T.);
#447=ORIENTED_EDGE('',*,*,#355,.T.);
#448=ORIENTED_EDGE('',*,*,#354,.F.);
#449=ORIENTED_EDGE('',*,*,#355,.F.);
#450=ORIENTED_EDGE('',*,*,#356,.T.);
#451=ORIENTED_EDGE('',*,*,#357,.F.);
#452=ORIENTED_EDGE('',*,*,#356,.F.);
#453=ORIENTED_EDGE('',*,*,#353,.F.);
#454=ORIENTED_EDGE('',*,*,#358,.F.);
#455=ORIENTED_EDGE('',*,*,#359,.T.);
#456=ORIENTED_EDGE('',*,*,#360,.T.);
#457=ORIENTED_EDGE('',*,*,#357,.T.);
#458=ORIENTED_EDGE('',*,*,#360,.F.);
#459=ORIENTED_EDGE('',*,*,#359,.F.);
#460=ORIENTED_EDGE('',*,*,#361,.T.);
#461=ORIENTED_EDGE('',*,*,#361,.F.);
#462=ORIENTED_EDGE('',*,*,#362,.T.);
#463=ORIENTED_EDGE('',*,*,#363,.F.);
#464=ORIENTED_EDGE('',*,*,#362,.F.);
#465=ORIENTED_EDGE('',*,*,#364,.F.);
#466=ORIENTED_EDGE('',*,*,#365,.T.);
#467=ORIENTED_EDGE('',*,*,#358,.T.);
#468=ORIENTED_EDGE('',*,*,#365,.F.);
#469=ORIENTED_EDGE('',*,*,#366,.F.);
#470=ORIENTED_EDGE('',*,*,#367,.T.);
#471=ORIENTED_EDGE('',*,*,#368,.T.);
#472=ORIENTED_EDGE('',*,*,#367,.F.);
#473=ORIENTED_EDGE('',*,*,#366,.T.);
#474=ORIENTED_EDGE('',*,*,#364,.T.);
#475=ORIENTED_EDGE('',*,*,#368,.F.);
#476=ORIENTED_EDGE('',*,*,#363,.T.);
#477=ORIENTED_EDGE('',*,*,#369,.F.);
#478=ORIENTED_EDGE('',*,*,#370,.F.);
#479=ORIENTED_EDGE('',*,*,#371,.F.);
#480=ORIENTED_EDGE('',*,*,#372,.F.);
#481=ORIENTED_EDGE('',*,*,#373,.T.);
#482=ORIENTED_EDGE('',*,*,#374,.F.);
#483=ORIENTED_EDGE('',*,*,#375,.T.);
#484=ORIENTED_EDGE('',*,*,#376,.F.);
#485=ORIENTED_EDGE('',*,*,#377,.F.);
#486=ORIENTED_EDGE('',*,*,#378,.F.);
#487=ORIENTED_EDGE('',*,*,#379,.T.);
#488=ORIENTED_EDGE('',*,*,#380,.F.);
#489=ORIENTED_EDGE('',*,*,#375,.F.);
#490=ORIENTED_EDGE('',*,*,#381,.F.);
#491=ORIENTED_EDGE('',*,*,#382,.T.);
#492=ORIENTED_EDGE('',*,*,#383,.F.);
#493=ORIENTED_EDGE('',*,*,#379,.F.);
#494=ORIENTED_EDGE('',*,*,#384,.F.);
#495=ORIENTED_EDGE('',*,*,#385,.T.);
#496=ORIENTED_EDGE('',*,*,#386,.F.);
#497=ORIENTED_EDGE('',*,*,#382,.F.);
#498=ORIENTED_EDGE('',*,*,#387,.F.);
#499=ORIENTED_EDGE('',*,*,#388,.T.);
#500=ORIENTED_EDGE('',*,*,#389,.F.);
#501=ORIENTED_EDGE('',*,*,#385,.F.);
#502=ORIENTED_EDGE('',*,*,#390,.F.);
#503=ORIENTED_EDGE('',*,*,#391,.T.);
#504=ORIENTED_EDGE('',*,*,#392,.F.);
#505=ORIENTED_EDGE('',*,*,#388,.F.);
#506=ORIENTED_EDGE('',*,*,#393,.F.);
#507=ORIENTED_EDGE('',*,*,#394,.T.);
#508=ORIENTED_EDGE('',*,*,#395,.F.);
#509=ORIENTED_EDGE('',*,*,#396,.F.);
#510=ORIENTED_EDGE('',*,*,#397,.F.);
#511=ORIENTED_EDGE('',*,*,#398,.T.);
#512=ORIENTED_EDGE('',*,*,#399,.F.);
#513=ORIENTED_EDGE('',*,*,#394,.F.);
#514=ORIENTED_EDGE('',*,*,#400,.F.);
#515=ORIENTED_EDGE('',*,*,#401,.T.);
#516=ORIENTED_EDGE('',*,*,#402,.F.);
#517=ORIENTED_EDGE('',*,*,#398,.F.);
#518=ORIENTED_EDGE('',*,*,#403,.F.);
#519=ORIENTED_EDGE('',*,*,#404,.T.);
#520=ORIENTED_EDGE('',*,*,#405,.F.);
#521=ORIENTED_EDGE('',*,*,#401,.F.);
#522=ORIENTED_EDGE('',*,*,#406,.F.);
#523=ORIENTED_EDGE('',*,*,#377,.T.);
#524=ORIENTED_EDGE('',*,*,#407,.F.);
#525=ORIENTED_EDGE('',*,*,#404,.F.);
#526=ORIENTED_EDGE('',*,*,#408,.F.);
#527=ORIENTED_EDGE('',*,*,#409,.F.);
#528=ORIENTED_EDGE('',*,*,#410,.F.);
#529=ORIENTED_EDGE('',*,*,#411,.T.);
#530=ORIENTED_EDGE('',*,*,#412,.T.);
#531=ORIENTED_EDGE('',*,*,#413,.F.);
#532=ORIENTED_EDGE('',*,*,#414,.T.);
#533=ORIENTED_EDGE('',*,*,#372,.T.);
#534=ORIENTED_EDGE('',*,*,#415,.T.);
#535=ORIENTED_EDGE('',*,*,#416,.T.);
#536=ORIENTED_EDGE('',*,*,#417,.T.);
#537=ORIENTED_EDGE('',*,*,#371,.T.);
#538=ORIENTED_EDGE('',*,*,#418,.F.);
#539=ORIENTED_EDGE('',*,*,#412,.F.);
#540=ORIENTED_EDGE('',*,*,#417,.F.);
#541=ORIENTED_EDGE('',*,*,#419,.T.);
#542=ORIENTED_EDGE('',*,*,#420,.F.);
#543=ORIENTED_EDGE('',*,*,#419,.F.);
#544=ORIENTED_EDGE('',*,*,#416,.F.);
#545=ORIENTED_EDGE('',*,*,#421,.F.);
#546=ORIENTED_EDGE('',*,*,#422,.T.);
#547=ORIENTED_EDGE('',*,*,#423,.T.);
#548=ORIENTED_EDGE('',*,*,#418,.T.);
#549=ORIENTED_EDGE('',*,*,#420,.T.);
#550=ORIENTED_EDGE('',*,*,#424,.F.);
#551=ORIENTED_EDGE('',*,*,#425,.T.);
#552=ORIENTED_EDGE('',*,*,#413,.T.);
#553=ORIENTED_EDGE('',*,*,#423,.F.);
#554=ORIENTED_EDGE('',*,*,#426,.F.);
#555=ORIENTED_EDGE('',*,*,#427,.T.);
#556=ORIENTED_EDGE('',*,*,#428,.T.);
#557=ORIENTED_EDGE('',*,*,#429,.T.);
#558=ORIENTED_EDGE('',*,*,#424,.T.);
#559=ORIENTED_EDGE('',*,*,#430,.F.);
#560=ORIENTED_EDGE('',*,*,#431,.T.);
#561=ORIENTED_EDGE('',*,*,#428,.F.);
#562=ORIENTED_EDGE('',*,*,#432,.F.);
#563=ORIENTED_EDGE('',*,*,#433,.F.);
#564=ORIENTED_EDGE('',*,*,#409,.T.);
#565=ORIENTED_EDGE('',*,*,#434,.F.);
#566=ORIENTED_EDGE('',*,*,#432,.T.);
#567=ORIENTED_EDGE('',*,*,#427,.F.);
#568=ORIENTED_EDGE('',*,*,#426,.T.);
#569=ORIENTED_EDGE('',*,*,#422,.F.);
#570=ORIENTED_EDGE('',*,*,#421,.T.);
#571=ORIENTED_EDGE('',*,*,#415,.F.);
#572=ORIENTED_EDGE('',*,*,#370,.T.);
#573=ORIENTED_EDGE('',*,*,#435,.T.);
#574=ORIENTED_EDGE('',*,*,#434,.T.);
#575=ORIENTED_EDGE('',*,*,#369,.T.);
#576=ORIENTED_EDGE('',*,*,#436,.F.);
#577=ORIENTED_EDGE('',*,*,#437,.T.);
#578=ORIENTED_EDGE('',*,*,#410,.T.);
#579=ORIENTED_EDGE('',*,*,#433,.T.);
#580=ORIENTED_EDGE('',*,*,#438,.F.);
#581=ORIENTED_EDGE('',*,*,#411,.F.);
#582=ORIENTED_EDGE('',*,*,#437,.F.);
#583=ORIENTED_EDGE('',*,*,#439,.F.);
#584=ORIENTED_EDGE('',*,*,#391,.F.);
#585=ORIENTED_EDGE('',*,*,#440,.F.);
#586=ORIENTED_EDGE('',*,*,#396,.T.);
#587=ORIENTED_EDGE('',*,*,#441,.F.);
#588=ORIENTED_EDGE('',*,*,#408,.T.);
#589=ORIENTED_EDGE('',*,*,#438,.T.);
#590=ORIENTED_EDGE('',*,*,#442,.T.);
#591=ORIENTED_EDGE('',*,*,#430,.T.);
#592=ORIENTED_EDGE('',*,*,#442,.F.);
#593=ORIENTED_EDGE('',*,*,#441,.T.);
#594=ORIENTED_EDGE('',*,*,#395,.T.);
#595=ORIENTED_EDGE('',*,*,#399,.T.);
#596=ORIENTED_EDGE('',*,*,#402,.T.);
#597=ORIENTED_EDGE('',*,*,#405,.T.);
#598=ORIENTED_EDGE('',*,*,#407,.T.);
#599=ORIENTED_EDGE('',*,*,#376,.T.);
#600=ORIENTED_EDGE('',*,*,#380,.T.);
#601=ORIENTED_EDGE('',*,*,#383,.T.);
#602=ORIENTED_EDGE('',*,*,#386,.T.);
#603=ORIENTED_EDGE('',*,*,#389,.T.);
#604=ORIENTED_EDGE('',*,*,#392,.T.);
#605=ORIENTED_EDGE('',*,*,#439,.T.);
#606=ORIENTED_EDGE('',*,*,#436,.T.);
#607=ORIENTED_EDGE('',*,*,#373,.F.);
#608=ORIENTED_EDGE('',*,*,#414,.F.);
#609=ORIENTED_EDGE('',*,*,#425,.F.);
#610=ORIENTED_EDGE('',*,*,#429,.F.);
#611=ORIENTED_EDGE('',*,*,#431,.F.);
#612=ORIENTED_EDGE('',*,*,#435,.F.);
#613=ORIENTED_EDGE('',*,*,#443,.T.);
#614=ORIENTED_EDGE('',*,*,#444,.F.);
#615=ORIENTED_EDGE('',*,*,#443,.F.);
#616=ORIENTED_EDGE('',*,*,#440,.T.);
#617=ORIENTED_EDGE('',*,*,#390,.T.);
#618=ORIENTED_EDGE('',*,*,#387,.T.);
#619=ORIENTED_EDGE('',*,*,#384,.T.);
#620=ORIENTED_EDGE('',*,*,#381,.T.);
#621=ORIENTED_EDGE('',*,*,#378,.T.);
#622=ORIENTED_EDGE('',*,*,#374,.T.);
#623=ORIENTED_EDGE('',*,*,#406,.T.);
#624=ORIENTED_EDGE('',*,*,#403,.T.);
#625=ORIENTED_EDGE('',*,*,#400,.T.);
#626=ORIENTED_EDGE('',*,*,#397,.T.);
#627=ORIENTED_EDGE('',*,*,#393,.T.);
#628=ORIENTED_EDGE('',*,*,#444,.T.);
#629=CONICAL_SURFACE('',#693,2.43,0.785398163397448);
#630=CONICAL_SURFACE('',#700,2.43,0.785398163397448);
#631=ADVANCED_FACE('',(#59),#629,.T.);
#632=ADVANCED_FACE('',(#60),#44,.T.);
#633=ADVANCED_FACE('',(#61,#17),#23,.T.);
#634=ADVANCED_FACE('',(#62),#630,.T.);
#635=ADVANCED_FACE('',(#63,#18),#24,.F.);
#636=ADVANCED_FACE('',(#64),#45,.T.);
#637=ADVANCED_FACE('',(#65),#46,.F.);
#638=ADVANCED_FACE('',(#66),#47,.T.);
#639=ADVANCED_FACE('',(#67,#19),#25,.T.);
#640=ADVANCED_FACE('',(#68,#20),#26,.F.);
#641=ADVANCED_FACE('',(#69),#27,.T.);
#642=ADVANCED_FACE('',(#70),#28,.T.);
#643=ADVANCED_FACE('',(#71),#48,.T.);
#644=ADVANCED_FACE('',(#72),#49,.F.);
#645=ADVANCED_FACE('',(#73),#50,.T.);
#646=ADVANCED_FACE('',(#74),#29,.T.);
#647=ADVANCED_FACE('',(#75),#51,.T.);
#648=ADVANCED_FACE('',(#76),#52,.T.);
#649=ADVANCED_FACE('',(#77),#30,.T.);
#650=ADVANCED_FACE('',(#78),#53,.T.);
#651=ADVANCED_FACE('',(#79),#54,.F.);
#652=ADVANCED_FACE('',(#80),#55,.T.);
#653=ADVANCED_FACE('',(#81),#31,.T.);
#654=ADVANCED_FACE('',(#82),#32,.T.);
#655=ADVANCED_FACE('',(#83),#56,.T.);
#656=ADVANCED_FACE('',(#84),#33,.T.);
#657=ADVANCED_FACE('',(#85),#34,.T.);
#658=ADVANCED_FACE('',(#86),#57,.T.);
#659=ADVANCED_FACE('',(#87),#35,.T.);
#660=ADVANCED_FACE('',(#88),#36,.T.);
#661=ADVANCED_FACE('',(#89),#37,.T.);
#662=ADVANCED_FACE('',(#90,#21),#38,.T.);
#663=ADVANCED_FACE('',(#91),#39,.T.);
#664=ADVANCED_FACE('',(#92),#40,.T.);
#665=ADVANCED_FACE('',(#93),#41,.T.);
#666=ADVANCED_FACE('',(#94),#42,.F.);
#667=ADVANCED_FACE('',(#95),#58,.F.);
#668=ADVANCED_FACE('',(#96,#22),#43,.F.);
#669=CLOSED_SHELL('',(#631,#632,#633,#634,#635,#636,#637,#638,#639,#640));
#670=CLOSED_SHELL('',(#641,#642,#643,#644,#645,#646,#647,#648,#649,#650,
#651,#652,#653,#654,#655,#656,#657,#658,#659,#660,#661,#662,#663,#664,#665,
#666,#667,#668));
#671=DERIVED_UNIT_ELEMENT(#674,1.);
#672=DERIVED_UNIT_ELEMENT(#1161,-3.);
#673=DIMENSIONAL_EXPONENTS(0.,1.,0.,0.,0.,0.,0.);
#674=(
CONVERSION_BASED_UNIT('gram',#676)
MASS_UNIT()
NAMED_UNIT(#673)
);
#675=(
MASS_UNIT()
NAMED_UNIT(*)
SI_UNIT(.KILO.,.GRAM.)
);
#676=MASS_MEASURE_WITH_UNIT(MASS_MEASURE(0.001),#675);
#677=DERIVED_UNIT((#671,#672));
#678=MEASURE_REPRESENTATION_ITEM('density measure',
POSITIVE_RATIO_MEASURE(7.85),#677);
#679=PROPERTY_DEFINITION_REPRESENTATION(#684,#681);
#680=PROPERTY_DEFINITION_REPRESENTATION(#685,#682);
#681=REPRESENTATION('material name',(#683),#1158);
#682=REPRESENTATION('density',(#678),#1158);
#683=DESCRIPTIVE_REPRESENTATION_ITEM('Steel','Steel');
#684=PROPERTY_DEFINITION('material property','material name',#1168);
#685=PROPERTY_DEFINITION('material property','density of part',#1168);
#686=DATE_TIME_ROLE('creation_date');
#687=APPLIED_DATE_AND_TIME_ASSIGNMENT(#688,#686,(#1168));
#688=DATE_AND_TIME(#689,#690);
#689=CALENDAR_DATE(2025,10,9);
#690=LOCAL_TIME(0,0,0.,#691);
#691=COORDINATED_UNIVERSAL_TIME_OFFSET(0,0,.BEHIND.);
#692=AXIS2_PLACEMENT_3D('',#965,#763,#764);
#693=AXIS2_PLACEMENT_3D('',#966,#765,#766);
#694=AXIS2_PLACEMENT_3D('',#968,#767,#768);
#695=AXIS2_PLACEMENT_3D('',#971,#770,#771);
#696=AXIS2_PLACEMENT_3D('',#972,#772,#773);
#697=AXIS2_PLACEMENT_3D('',#975,#775,#776);
#698=AXIS2_PLACEMENT_3D('',#976,#777,#778);
#699=AXIS2_PLACEMENT_3D('',#978,#779,#780);
#700=AXIS2_PLACEMENT_3D('',#979,#781,#782);
#701=AXIS2_PLACEMENT_3D('',#981,#783,#784);
#702=AXIS2_PLACEMENT_3D('',#983,#786,#787);
#703=AXIS2_PLACEMENT_3D('',#985,#788,#789);
#704=AXIS2_PLACEMENT_3D('',#986,#790,#791);
#705=AXIS2_PLACEMENT_3D('',#989,#793,#794);
#706=AXIS2_PLACEMENT_3D('',#990,#795,#796);
#707=AXIS2_PLACEMENT_3D('',#992,#797,#798);
#708=AXIS2_PLACEMENT_3D('',#994,#800,#801);
#709=AXIS2_PLACEMENT_3D('',#996,#802,#803);
#710=AXIS2_PLACEMENT_3D('',#999,#805,#806);
#711=AXIS2_PLACEMENT_3D('',#1000,#807,#808);
#712=AXIS2_PLACEMENT_3D('',#1001,#809,#810);
#713=AXIS2_PLACEMENT_3D('',#1002,#811,#812);
#714=AXIS2_PLACEMENT_3D('',#1013,#818,#819);
#715=AXIS2_PLACEMENT_3D('',#1022,#824,#825);
#716=AXIS2_PLACEMENT_3D('',#1024,#826,#827);
#717=AXIS2_PLACEMENT_3D('',#1027,#829,#830);
#718=AXIS2_PLACEMENT_3D('',#1028,#831,#832);
#719=AXIS2_PLACEMENT_3D('',#1030,#833,#834);
#720=AXIS2_PLACEMENT_3D('',#1033,#836,#837);
#721=AXIS2_PLACEMENT_3D('',#1034,#838,#839);
#722=AXIS2_PLACEMENT_3D('',#1036,#840,#841);
#723=AXIS2_PLACEMENT_3D('',#1039,#843,#844);
#724=AXIS2_PLACEMENT_3D('',#1040,#845,#846);
#725=AXIS2_PLACEMENT_3D('',#1046,#850,#851);
#726=AXIS2_PLACEMENT_3D('',#1048,#852,#853);
#727=AXIS2_PLACEMENT_3D('',#1051,#855,#856);
#728=AXIS2_PLACEMENT_3D('',#1052,#857,#858);
#729=AXIS2_PLACEMENT_3D('',#1055,#859,#860);
#730=AXIS2_PLACEMENT_3D('',#1059,#862,#863);
#731=AXIS2_PLACEMENT_3D('',#1061,#865,#866);
#732=AXIS2_PLACEMENT_3D('',#1067,#870,#871);
#733=AXIS2_PLACEMENT_3D('',#1069,#872,#873);
#734=AXIS2_PLACEMENT_3D('',#1072,#875,#876);
#735=AXIS2_PLACEMENT_3D('',#1073,#877,#878);
#736=AXIS2_PLACEMENT_3D('',#1075,#879,#880);
#737=AXIS2_PLACEMENT_3D('',#1078,#882,#883);
#738=AXIS2_PLACEMENT_3D('',#1079,#884,#885);
#739=AXIS2_PLACEMENT_3D('',#1080,#886,#887);
#740=AXIS2_PLACEMENT_3D('',#1081,#888,#889);
#741=AXIS2_PLACEMENT_3D('',#1082,#890,#891);
#742=AXIS2_PLACEMENT_3D('',#1091,#896,#897);
#743=AXIS2_PLACEMENT_3D('',#1097,#901,#902);
#744=AXIS2_PLACEMENT_3D('',#1099,#903,#904);
#745=AXIS2_PLACEMENT_3D('',#1102,#906,#907);
#746=AXIS2_PLACEMENT_3D('',#1103,#908,#909);
#747=AXIS2_PLACEMENT_3D('',#1105,#910,#911);
#748=AXIS2_PLACEMENT_3D('',#1107,#913,#914);
#749=AXIS2_PLACEMENT_3D('',#1111,#917,#918);
#750=AXIS2_PLACEMENT_3D('',#1113,#919,#920);
#751=AXIS2_PLACEMENT_3D('',#1115,#922,#923);
#752=AXIS2_PLACEMENT_3D('',#1121,#927,#928);
#753=AXIS2_PLACEMENT_3D('',#1127,#932,#933);
#754=AXIS2_PLACEMENT_3D('',#1134,#938,#939);
#755=AXIS2_PLACEMENT_3D('',#1137,#941,#942);
#756=AXIS2_PLACEMENT_3D('',#1138,#943,#944);
#757=AXIS2_PLACEMENT_3D('',#1142,#947,#948);
#758=AXIS2_PLACEMENT_3D('',#1148,#953,#954);
#759=AXIS2_PLACEMENT_3D('',#1150,#956,#957);
#760=AXIS2_PLACEMENT_3D('',#1151,#958,#959);
#761=AXIS2_PLACEMENT_3D('',#1154,#961,#962);
#762=AXIS2_PLACEMENT_3D('',#1155,#963,#964);
#763=DIRECTION('axis',(0.,0.,1.));
#764=DIRECTION('refdir',(1.,0.,0.));
#765=DIRECTION('center_axis',(0.,0.,1.));
#766=DIRECTION('ref_axis',(1.,0.,0.));
#767=DIRECTION('center_axis',(0.,0.,1.));
#768=DIRECTION('ref_axis',(1.,0.,0.));
#769=DIRECTION('',(-0.707106781186547,8.65956056235493E-17,0.707106781186547));
#770=DIRECTION('center_axis',(0.,0.,-1.));
#771=DIRECTION('ref_axis',(1.,0.,0.));
#772=DIRECTION('center_axis',(0.,0.,1.));
#773=DIRECTION('ref_axis',(1.,0.,0.));
#774=DIRECTION('',(0.,0.,1.));
#775=DIRECTION('center_axis',(0.,0.,1.));
#776=DIRECTION('ref_axis',(1.,0.,0.));
#777=DIRECTION('center_axis',(0.,0.,-1.));
#778=DIRECTION('ref_axis',(-1.,0.,0.));
#779=DIRECTION('center_axis',(0.,0.,-1.));
#780=DIRECTION('ref_axis',(-1.,0.,0.));
#781=DIRECTION('center_axis',(0.,0.,-1.));
#782=DIRECTION('ref_axis',(1.,0.,0.));
#783=DIRECTION('center_axis',(0.,0.,-1.));
#784=DIRECTION('ref_axis',(1.,0.,0.));
#785=DIRECTION('',(-0.707106781186547,-8.65956056235493E-17,-0.707106781186547));
#786=DIRECTION('center_axis',(0.,0.,-1.));
#787=DIRECTION('ref_axis',(-1.,0.,0.));
#788=DIRECTION('center_axis',(0.,0.,-1.));
#789=DIRECTION('ref_axis',(-1.,0.,0.));
#790=DIRECTION('center_axis',(0.,0.,-1.));
#791=DIRECTION('ref_axis',(-1.,0.,0.));
#792=DIRECTION('',(0.,0.,1.));
#793=DIRECTION('center_axis',(0.,0.,1.));
#794=DIRECTION('ref_axis',(-1.,0.,0.));
#795=DIRECTION('center_axis',(0.,0.,1.));
#796=DIRECTION('ref_axis',(-1.,0.,0.));
#797=DIRECTION('center_axis',(0.,0.,-1.));
#798=DIRECTION('ref_axis',(-1.,0.,0.));
#799=DIRECTION('',(0.,0.,-1.));
#800=DIRECTION('center_axis',(0.,0.,1.));
#801=DIRECTION('ref_axis',(1.,0.,0.));
#802=DIRECTION('center_axis',(0.,0.,1.));
#803=DIRECTION('ref_axis',(1.,0.,0.));
#804=DIRECTION('',(0.,0.,-1.));
#805=DIRECTION('center_axis',(0.,0.,1.));
#806=DIRECTION('ref_axis',(1.,0.,0.));
#807=DIRECTION('center_axis',(0.,0.,1.));
#808=DIRECTION('ref_axis',(1.,0.,0.));
#809=DIRECTION('center_axis',(0.,0.,1.));
#810=DIRECTION('ref_axis',(1.,0.,0.));
#811=DIRECTION('center_axis',(-1.,-5.55111512312578E-17,0.));
#812=DIRECTION('ref_axis',(-5.55111512312578E-17,1.,0.));
#813=DIRECTION('',(0.,0.,1.));
#814=DIRECTION('',(5.5511151231258E-16,1.,0.));
#815=DIRECTION('',(0.,0.,-1.));
#816=DIRECTION('',(0.,0.,-1.));
#817=DIRECTION('',(-5.55111512312578E-17,1.,0.));
#818=DIRECTION('center_axis',(0.,-1.,0.));
#819=DIRECTION('ref_axis',(-1.,0.,0.));
#820=DIRECTION('',(1.,0.,0.));
#821=DIRECTION('',(0.,0.,-1.));
#822=DIRECTION('',(-1.,0.,0.));
#823=DIRECTION('',(0.,0.,-1.));
#824=DIRECTION('center_axis',(0.,0.,-1.));
#825=DIRECTION('ref_axis',(-0.419058177461747,-0.907959384500452,0.));
#826=DIRECTION('center_axis',(0.,0.,1.));
#827=DIRECTION('ref_axis',(-0.419058177461747,-0.907959384500452,0.));
#828=DIRECTION('',(0.,0.,-1.));
#829=DIRECTION('center_axis',(0.,0.,-1.));
#830=DIRECTION('ref_axis',(-0.419058177461747,-0.907959384500452,0.));
#831=DIRECTION('center_axis',(0.,0.,-1.));
#832=DIRECTION('ref_axis',(-0.507988574984004,-0.861363806812035,0.));
#833=DIRECTION('center_axis',(0.,0.,-1.));
#834=DIRECTION('ref_axis',(-0.507988574984004,-0.861363806812035,0.));
#835=DIRECTION('',(0.,0.,-1.));
#836=DIRECTION('center_axis',(0.,0.,1.));
#837=DIRECTION('ref_axis',(-0.507988574984004,-0.861363806812035,0.));
#838=DIRECTION('center_axis',(0.,0.,-1.));
#839=DIRECTION('ref_axis',(-1.,9.25185853854297E-17,0.));
#840=DIRECTION('center_axis',(0.,0.,1.));
#841=DIRECTION('ref_axis',(-1.,9.25185853854297E-17,0.));
#842=DIRECTION('',(0.,0.,-1.));
#843=DIRECTION('center_axis',(0.,0.,-1.));
#844=DIRECTION('ref_axis',(-1.,9.25185853854297E-17,0.));
#845=DIRECTION('center_axis',(-1.,0.,0.));
#846=DIRECTION('ref_axis',(0.,1.,0.));
#847=DIRECTION('',(0.,-1.,0.));
#848=DIRECTION('',(0.,0.,-1.));
#849=DIRECTION('',(0.,1.,0.));
#850=DIRECTION('center_axis',(0.,0.,-1.));
#851=DIRECTION('ref_axis',(0.,1.,0.));
#852=DIRECTION('center_axis',(0.,0.,1.));
#853=DIRECTION('ref_axis',(0.,1.,0.));
#854=DIRECTION('',(0.,0.,-1.));
#855=DIRECTION('center_axis',(0.,0.,-1.));
#856=DIRECTION('ref_axis',(0.,1.,0.));
#857=DIRECTION('center_axis',(0.,0.,-1.));
#858=DIRECTION('ref_axis',(1.,9.25185853854297E-17,0.));
#859=DIRECTION('center_axis',(0.,0.,1.));
#860=DIRECTION('ref_axis',(1.,9.25185853854297E-17,0.));
#861=DIRECTION('',(0.,0.,-1.));
#862=DIRECTION('center_axis',(0.,0.,-1.));
#863=DIRECTION('ref_axis',(1.,9.25185853854297E-17,0.));
#864=DIRECTION('',(0.,0.,-1.));
#865=DIRECTION('center_axis',(1.,0.,0.));
#866=DIRECTION('ref_axis',(0.,-1.,0.));
#867=DIRECTION('',(0.,1.,0.));
#868=DIRECTION('',(0.,0.,-1.));
#869=DIRECTION('',(0.,-1.,0.));
#870=DIRECTION('center_axis',(0.,0.,-1.));
#871=DIRECTION('ref_axis',(0.419058177461747,-0.907959384500452,0.));
#872=DIRECTION('center_axis',(0.,0.,1.));
#873=DIRECTION('ref_axis',(0.419058177461747,-0.907959384500452,0.));
#874=DIRECTION('',(0.,0.,-1.));
#875=DIRECTION('center_axis',(0.,0.,-1.));
#876=DIRECTION('ref_axis',(0.419058177461747,-0.907959384500452,0.));
#877=DIRECTION('center_axis',(0.,0.,-1.));
#878=DIRECTION('ref_axis',(0.325903772633195,-0.945402946358562,0.));
#879=DIRECTION('center_axis',(0.,0.,-1.));
#880=DIRECTION('ref_axis',(0.325903772633195,-0.945402946358562,0.));
#881=DIRECTION('',(0.,0.,-1.));
#882=DIRECTION('center_axis',(0.,0.,1.));
#883=DIRECTION('ref_axis',(0.325903772633195,-0.945402946358562,0.));
#884=DIRECTION('center_axis',(0.,0.,-1.));
#885=DIRECTION('ref_axis',(9.25185853854297E-17,-1.,0.));
#886=DIRECTION('center_axis',(0.,0.,1.));
#887=DIRECTION('ref_axis',(9.25185853854297E-17,-1.,0.));
#888=DIRECTION('center_axis',(0.,0.,-1.));
#889=DIRECTION('ref_axis',(9.25185853854297E-17,-1.,0.));
#890=DIRECTION('center_axis',(0.,0.,-1.));
#891=DIRECTION('ref_axis',(-1.,0.,0.));
#892=DIRECTION('',(-0.707106781186548,0.707106781186548,0.));
#893=DIRECTION('',(1.,0.,0.));
#894=DIRECTION('',(-0.707106781186548,-0.707106781186548,0.));
#895=DIRECTION('',(1.,0.,0.));
#896=DIRECTION('center_axis',(5.55111512312578E-16,-1.,0.));
#897=DIRECTION('ref_axis',(-1.,-5.55111512312578E-16,0.));
#898=DIRECTION('',(1.,5.55111512312578E-16,0.));
#899=DIRECTION('',(0.,0.,-1.));
#900=DIRECTION('',(-1.,-5.55111512312578E-16,0.));
#901=DIRECTION('center_axis',(0.,0.,1.));
#902=DIRECTION('ref_axis',(-0.707106781186548,-0.707106781186547,0.));
#903=DIRECTION('center_axis',(0.,0.,1.));
#904=DIRECTION('ref_axis',(-0.707106781186548,-0.707106781186547,0.));
#905=DIRECTION('',(0.,0.,1.));
#906=DIRECTION('center_axis',(0.,0.,-1.));
#907=DIRECTION('ref_axis',(-0.707106781186548,-0.707106781186547,0.));
#908=DIRECTION('center_axis',(0.,0.,1.));
#909=DIRECTION('ref_axis',(1.,0.,0.));
#910=DIRECTION('center_axis',(0.,0.,-1.));
#911=DIRECTION('ref_axis',(0.707106781186548,-0.707106781186547,0.));
#912=DIRECTION('',(1.,-2.77555756156289E-16,0.));
#913=DIRECTION('center_axis',(-2.77555756156289E-16,-1.,0.));
#914=DIRECTION('ref_axis',(1.,-2.77555756156289E-16,0.));
#915=DIRECTION('',(0.,0.,-1.));
#916=DIRECTION('',(-1.,2.77555756156289E-16,0.));
#917=DIRECTION('center_axis',(0.,0.,1.));
#918=DIRECTION('ref_axis',(0.707106781186548,-0.707106781186547,0.));
#919=DIRECTION('center_axis',(0.,0.,1.));
#920=DIRECTION('ref_axis',(0.707106781186548,-0.707106781186547,0.));
#921=DIRECTION('',(0.,0.,1.));
#922=DIRECTION('center_axis',(1.,-5.55111512312579E-17,0.));
#923=DIRECTION('ref_axis',(-5.55111512312579E-17,-1.,0.));
#924=DIRECTION('',(0.,0.,-1.));
#925=DIRECTION('',(-5.55111512312579E-17,-1.,0.));
#926=DIRECTION('',(-5.55111512312579E-17,-1.,0.));
#927=DIRECTION('center_axis',(0.707106781186548,0.707106781186548,0.));
#928=DIRECTION('ref_axis',(0.,0.,-1.));
#929=DIRECTION('',(-0.707106781186548,0.707106781186548,0.));
#930=DIRECTION('',(0.,0.,1.));
#931=DIRECTION('',(-0.707106781186548,0.707106781186548,0.));
#932=DIRECTION('center_axis',(0.,1.,0.));
#933=DIRECTION('ref_axis',(1.,0.,0.));
#934=DIRECTION('',(0.,0.,-1.));
#935=DIRECTION('',(1.,0.,0.));
#936=DIRECTION('',(1.,0.,0.));
#937=DIRECTION('',(0.,0.,-1.));
#938=DIRECTION('center_axis',(0.,0.,-1.));
#939=DIRECTION('ref_axis',(-1.,0.,0.));
#940=DIRECTION('',(-0.707106781186548,-0.707106781186548,0.));
#941=DIRECTION('center_axis',(0.,0.,1.));
#942=DIRECTION('ref_axis',(-1.,0.,0.));
#943=DIRECTION('center_axis',(-0.707106781186548,0.707106781186548,0.));
#944=DIRECTION('ref_axis',(0.,0.,1.));
#945=DIRECTION('',(-0.707106781186548,-0.707106781186548,0.));
#946=DIRECTION('',(0.,0.,-1.));
#947=DIRECTION('center_axis',(0.,1.,0.));
#948=DIRECTION('ref_axis',(1.,0.,0.));
#949=DIRECTION('',(0.,0.,1.));
#950=DIRECTION('',(1.,0.,0.));
#951=DIRECTION('',(-1.,0.,0.));
#952=DIRECTION('',(1.,0.,0.));
#953=DIRECTION('center_axis',(0.707106781186548,0.707106781186547,0.));
#954=DIRECTION('ref_axis',(0.,0.,-1.));
#955=DIRECTION('',(-0.707106781186547,0.707106781186548,0.));
#956=DIRECTION('center_axis',(0.,0.,1.));
#957=DIRECTION('ref_axis',(1.,0.,0.));
#958=DIRECTION('center_axis',(0.,0.,1.));
#959=DIRECTION('ref_axis',(-1.,0.,0.));
#960=DIRECTION('',(0.,0.,1.));
#961=DIRECTION('center_axis',(0.,0.,-1.));
#962=DIRECTION('ref_axis',(-1.,0.,0.));
#963=DIRECTION('center_axis',(0.,0.,-1.));
#964=DIRECTION('ref_axis',(-1.,0.,0.));
#965=CARTESIAN_POINT('',(0.,0.,0.));
#966=CARTESIAN_POINT('Origin',(0.,0.,-10.95));
#967=CARTESIAN_POINT('',(-2.38,-2.9146593819707E-16,-11.));
#968=CARTESIAN_POINT('Origin',(0.,0.,-11.));
#969=CARTESIAN_POINT('',(-2.48,3.03712406188544E-16,-10.9));
#970=CARTESIAN_POINT('',(-2.43,2.97589172192807E-16,-10.95));
#971=CARTESIAN_POINT('Origin',(0.,0.,-10.9));
#972=CARTESIAN_POINT('Origin',(0.,0.,-11.));
#973=CARTESIAN_POINT('',(-2.48,-3.03712406188544E-16,-3.1));
#974=CARTESIAN_POINT('',(-2.48,-3.03712406188544E-16,-11.));
#975=CARTESIAN_POINT('Origin',(0.,0.,-3.1));
#976=CARTESIAN_POINT('Origin',(0.,0.,-11.));
#977=CARTESIAN_POINT('',(1.,1.22464679914735E-16,-11.));
#978=CARTESIAN_POINT('Origin',(0.,0.,-11.));
#979=CARTESIAN_POINT('Origin',(0.,0.,-3.05));
#980=CARTESIAN_POINT('',(-2.38,2.9146593819707E-16,-3.));
#981=CARTESIAN_POINT('Origin',(0.,0.,-3.));
#982=CARTESIAN_POINT('',(-2.43,-2.97589172192807E-16,-3.05));
#983=CARTESIAN_POINT('Origin',(0.,-1.,-3.));
#984=CARTESIAN_POINT('',(1.5,-1.83697019872103E-16,-3.));
#985=CARTESIAN_POINT('Origin',(0.,0.,-3.));
#986=CARTESIAN_POINT('Origin',(0.,0.,0.));
#987=CARTESIAN_POINT('',(1.5,-1.83697019872103E-16,0.));
#988=CARTESIAN_POINT('',(1.5,-1.83697019872103E-16,0.));
#989=CARTESIAN_POINT('Origin',(0.,0.,0.));
#990=CARTESIAN_POINT('Origin',(0.,0.,0.));
#991=CARTESIAN_POINT('',(1.,1.22464679914735E-16,13.));
#992=CARTESIAN_POINT('Origin',(0.,0.,13.));
#993=CARTESIAN_POINT('',(1.,1.22464679914735E-16,0.));
#994=CARTESIAN_POINT('Origin',(0.,0.,0.));
#995=CARTESIAN_POINT('',(-1.75,-2.14313189850787E-16,13.));
#996=CARTESIAN_POINT('Origin',(0.,0.,13.));
#997=CARTESIAN_POINT('',(-1.75,-2.14313189850787E-16,0.));
#998=CARTESIAN_POINT('',(-1.75,-2.14313189850787E-16,0.));
#999=CARTESIAN_POINT('Origin',(0.,0.,0.));
#1000=CARTESIAN_POINT('Origin',(0.,0.,13.));
#1001=CARTESIAN_POINT('Origin',(0.,0.,0.));
#1002=CARTESIAN_POINT('Origin',(-4.,-6.,-3.));
#1003=CARTESIAN_POINT('',(-3.99999999999999,3.49999999999999,-38.));
#1004=CARTESIAN_POINT('',(-4.,3.5,-8.));
#1005=CARTESIAN_POINT('',(-4.,3.5,-3.));
#1006=CARTESIAN_POINT('',(-4.,-6.,-38.));
#1007=CARTESIAN_POINT('',(-4.,-7.,-38.));
#1008=CARTESIAN_POINT('',(-4.,-6.,-37.));
#1009=CARTESIAN_POINT('',(-4.,-6.,-20.5));
#1010=CARTESIAN_POINT('',(-4.,-6.,-8.));
#1011=CARTESIAN_POINT('',(-4.,-6.,-3.));
#1012=CARTESIAN_POINT('',(-4.,-3.5,-8.));
#1013=CARTESIAN_POINT('Origin',(2.34108946836182,-7.,-3.));
#1014=CARTESIAN_POINT('',(-2.34108946836182,-7.,-3.));
#1015=CARTESIAN_POINT('',(2.34108946836182,-7.,-3.));
#1016=CARTESIAN_POINT('',(-3.,-7.,-3.));
#1017=CARTESIAN_POINT('',(-2.34108946836182,-7.,-8.));
#1018=CARTESIAN_POINT('',(-2.34108946836182,-7.,-3.));
#1019=CARTESIAN_POINT('',(2.34108946836182,-7.,-8.));
#1020=CARTESIAN_POINT('',(-3.,-7.,-8.));
#1021=CARTESIAN_POINT('',(2.34108946836182,-7.,-3.));
#1022=CARTESIAN_POINT('Origin',(-2.34108946836182,-4.,-3.));
#1023=CARTESIAN_POINT('',(-3.59826400074706,-6.72387815350136,-3.));
#1024=CARTESIAN_POINT('Origin',(-2.34108946836182,-4.,-3.));
#1025=CARTESIAN_POINT('',(-3.59826400074706,-6.72387815350136,-8.));
#1026=CARTESIAN_POINT('',(-3.59826400074706,-6.72387815350136,-3.));
#1027=CARTESIAN_POINT('Origin',(-2.34108946836182,-4.,-8.));
#1028=CARTESIAN_POINT('Origin',(-15.2009843111577,-26.3978704992255,-3.));
#1029=CARTESIAN_POINT('',(-7.75717453238524,-4.80438098505297,-3.));
#1030=CARTESIAN_POINT('Origin',(-15.2009843111577,-26.3978704992255,-3.));
#1031=CARTESIAN_POINT('',(-7.75717453238524,-4.80438098505297,-8.));
#1032=CARTESIAN_POINT('',(-7.75717453238524,-4.80438098505297,-3.));
#1033=CARTESIAN_POINT('Origin',(-15.2009843111577,-26.3978704992255,-8.));
#1034=CARTESIAN_POINT('Origin',(-6.5,-2.08050283155161,-3.));
#1035=CARTESIAN_POINT('',(-9.5,-2.08050283155161,-3.));
#1036=CARTESIAN_POINT('Origin',(-6.5,-2.08050283155161,-3.));
#1037=CARTESIAN_POINT('',(-9.5,-2.08050283155161,-8.));
#1038=CARTESIAN_POINT('',(-9.5,-2.08050283155161,-3.));
#1039=CARTESIAN_POINT('Origin',(-6.5,-2.08050283155161,-8.));
#1040=CARTESIAN_POINT('Origin',(-9.5,-2.08050283155161,-3.));
#1041=CARTESIAN_POINT('',(-9.5,2.,-3.));
#1042=CARTESIAN_POINT('',(-9.5,5.,-3.));
#1043=CARTESIAN_POINT('',(-9.5,2.,-8.));
#1044=CARTESIAN_POINT('',(-9.5,2.,-3.));
#1045=CARTESIAN_POINT('',(-9.5,5.,-8.));
#1046=CARTESIAN_POINT('Origin',(-6.5,2.,-3.));
#1047=CARTESIAN_POINT('',(-6.5,5.,-3.));
#1048=CARTESIAN_POINT('Origin',(-6.5,2.,-3.));
#1049=CARTESIAN_POINT('',(-6.5,5.,-8.));
#1050=CARTESIAN_POINT('',(-6.5,5.,-3.));
#1051=CARTESIAN_POINT('Origin',(-6.5,2.,-8.));
#1052=CARTESIAN_POINT('Origin',(6.5,2.,-3.));
#1053=CARTESIAN_POINT('',(9.5,2.,-3.));
#1054=CARTESIAN_POINT('',(6.5,5.,-3.));
#1055=CARTESIAN_POINT('Origin',(6.5,2.,-3.));
#1056=CARTESIAN_POINT('',(9.5,2.,-8.));
#1057=CARTESIAN_POINT('',(9.5,2.,-3.));
#1058=CARTESIAN_POINT('',(6.5,5.,-8.));
#1059=CARTESIAN_POINT('Origin',(6.5,2.,-8.));
#1060=CARTESIAN_POINT('',(6.5,5.,-3.));
#1061=CARTESIAN_POINT('Origin',(9.5,2.,-3.));
#1062=CARTESIAN_POINT('',(9.5,-2.08050283155161,-3.));
#1063=CARTESIAN_POINT('',(9.5,-4.,-3.));
#1064=CARTESIAN_POINT('',(9.5,-2.08050283155161,-8.));
#1065=CARTESIAN_POINT('',(9.5,-2.08050283155161,-3.));
#1066=CARTESIAN_POINT('',(9.5,-4.,-8.));
#1067=CARTESIAN_POINT('Origin',(6.5,-2.08050283155161,-3.));
#1068=CARTESIAN_POINT('',(7.75717453238524,-4.80438098505297,-3.));
#1069=CARTESIAN_POINT('Origin',(6.5,-2.08050283155161,-3.));
#1070=CARTESIAN_POINT('',(7.75717453238524,-4.80438098505297,-8.));
#1071=CARTESIAN_POINT('',(7.75717453238524,-4.80438098505297,-3.));
#1072=CARTESIAN_POINT('Origin',(6.5,-2.08050283155161,-8.));
#1073=CARTESIAN_POINT('Origin',(15.2009843111577,-26.3978704992255,-3.));
#1074=CARTESIAN_POINT('',(3.59826400074706,-6.72387815350136,-3.));
#1075=CARTESIAN_POINT('Origin',(15.2009843111577,-26.3978704992255,-3.));
#1076=CARTESIAN_POINT('',(3.59826400074706,-6.72387815350136,-8.));
#1077=CARTESIAN_POINT('',(3.59826400074706,-6.72387815350136,-3.));
#1078=CARTESIAN_POINT('Origin',(15.2009843111577,-26.3978704992255,-8.));
#1079=CARTESIAN_POINT('Origin',(2.34108946836182,-4.,-3.));
#1080=CARTESIAN_POINT('Origin',(2.34108946836182,-4.,-3.));
#1081=CARTESIAN_POINT('Origin',(2.34108946836182,-4.,-8.));
#1082=CARTESIAN_POINT('Origin',(-0.00767010078348396,4.5,-11.));
#1083=CARTESIAN_POINT('',(3.48465979843303,4.,-11.));
#1084=CARTESIAN_POINT('',(2.48465979843303,5.,-11.));
#1085=CARTESIAN_POINT('',(2.3615773236289,5.12308247480413,-11.));
#1086=CARTESIAN_POINT('',(-3.5,4.,-11.));
#1087=CARTESIAN_POINT('',(-2.00383505039174,4.,-11.));
#1088=CARTESIAN_POINT('',(-2.5,5.,-11.));
#1089=CARTESIAN_POINT('',(-2.12691752519587,5.37308247480413,-11.));
#1090=CARTESIAN_POINT('',(9.5,5.,-11.));
#1091=CARTESIAN_POINT('Origin',(4.,-6.,-3.));
#1092=CARTESIAN_POINT('',(4.,-6.,-37.));
#1093=CARTESIAN_POINT('',(2.,-6.,-37.));
#1094=CARTESIAN_POINT('',(4.,-6.,-8.));
#1095=CARTESIAN_POINT('',(4.,-6.,-3.));
#1096=CARTESIAN_POINT('',(2.,-6.,-8.));
#1097=CARTESIAN_POINT('Origin',(-3.,-6.,-20.5));
#1098=CARTESIAN_POINT('',(-3.,-7.,-38.));
#1099=CARTESIAN_POINT('Origin',(-3.,-6.,-38.));
#1100=CARTESIAN_POINT('',(-3.,-7.,-37.));
#1101=CARTESIAN_POINT('',(-3.,-7.,-20.5));
#1102=CARTESIAN_POINT('Origin',(-3.,-6.,-37.));
#1103=CARTESIAN_POINT('Origin',(-5.55111512312578E-16,-6.5,-37.));
#1104=CARTESIAN_POINT('',(3.,-7.,-37.));
#1105=CARTESIAN_POINT('Origin',(3.,-6.,-37.));
#1106=CARTESIAN_POINT('',(4.,-7.,-37.));
#1107=CARTESIAN_POINT('Origin',(-4.,-7.,-38.));
#1108=CARTESIAN_POINT('',(3.,-7.,-38.));
#1109=CARTESIAN_POINT('',(3.,-7.,-20.5));
#1110=CARTESIAN_POINT('',(4.,-7.,-38.));
#1111=CARTESIAN_POINT('Origin',(3.,-6.,-20.5));
#1112=CARTESIAN_POINT('',(4.,-6.,-38.));
#1113=CARTESIAN_POINT('Origin',(3.,-6.,-38.));
#1114=CARTESIAN_POINT('',(4.,-6.,-20.5));
#1115=CARTESIAN_POINT('Origin',(4.,4.,-3.));
#1116=CARTESIAN_POINT('',(4.,3.5,-8.));
#1117=CARTESIAN_POINT('',(4.,3.5,-38.));
#1118=CARTESIAN_POINT('',(4.,3.5,-3.));
#1119=CARTESIAN_POINT('',(4.,1.5,-8.));
#1120=CARTESIAN_POINT('',(4.,3.99999999999999,-38.));
#1121=CARTESIAN_POINT('Origin',(3.75,3.75,-3.));
#1122=CARTESIAN_POINT('',(3.5,4.,-38.));
#1123=CARTESIAN_POINT('',(4.,3.5,-38.));
#1124=CARTESIAN_POINT('',(3.5,4.,-8.));
#1125=CARTESIAN_POINT('',(3.5,4.,-3.));
#1126=CARTESIAN_POINT('',(4.,3.5,-8.));
#1127=CARTESIAN_POINT('Origin',(-4.,4.,-3.));
#1128=CARTESIAN_POINT('',(3.48465979843303,4.,-8.));
#1129=CARTESIAN_POINT('',(3.48465979843303,4.,-3.));
#1130=CARTESIAN_POINT('',(-2.,4.,-8.));
#1131=CARTESIAN_POINT('',(-3.5,4.,-38.));
#1132=CARTESIAN_POINT('',(-4.,4.,-38.));
#1133=CARTESIAN_POINT('',(-3.5,4.,-3.));
#1134=CARTESIAN_POINT('Origin',(0.,-1.,-38.));
#1135=CARTESIAN_POINT('',(-4.,3.5,-38.));
#1136=CARTESIAN_POINT('',(2.5,3.06161699786838E-16,-38.));
#1137=CARTESIAN_POINT('Origin',(0.,0.,-38.));
#1138=CARTESIAN_POINT('Origin',(-3.75,3.75,-3.));
#1139=CARTESIAN_POINT('',(-2.5,5.,-8.));
#1140=CARTESIAN_POINT('',(-3.75,3.75,-8.));
#1141=CARTESIAN_POINT('',(-2.5,5.,-3.));
#1142=CARTESIAN_POINT('Origin',(-6.5,5.,-3.));
#1143=CARTESIAN_POINT('',(2.48465979843303,5.,-8.));
#1144=CARTESIAN_POINT('',(2.48465979843303,5.,-3.));
#1145=CARTESIAN_POINT('',(9.5,5.,-8.));
#1146=CARTESIAN_POINT('',(9.5,5.,-3.));
#1147=CARTESIAN_POINT('',(9.5,5.,-8.));
#1148=CARTESIAN_POINT('Origin',(2.73465979843303,4.75,-3.));
#1149=CARTESIAN_POINT('',(3.48849484882477,3.99616494960826,-8.));
#1150=CARTESIAN_POINT('Origin',(0.,-1.,-8.));
#1151=CARTESIAN_POINT('Origin',(0.,0.,-38.));
#1152=CARTESIAN_POINT('',(2.5,3.06161699786838E-16,-3.));
#1153=CARTESIAN_POINT('',(2.5,3.06161699786838E-16,-38.));
#1154=CARTESIAN_POINT('Origin',(0.,0.,-3.));
#1155=CARTESIAN_POINT('Origin',(0.,-1.,-3.));
#1156=UNCERTAINTY_MEASURE_WITH_UNIT(LENGTH_MEASURE(0.01),#1160,
'DISTANCE_ACCURACY_VALUE',
'Maximum model space distance between geometric entities at asserted c
onnectivities');
#1157=UNCERTAINTY_MEASURE_WITH_UNIT(LENGTH_MEASURE(0.01),#1160,
'DISTANCE_ACCURACY_VALUE',
'Maximum model space distance between geometric entities at asserted c
onnectivities');
#1158=(
GEOMETRIC_REPRESENTATION_CONTEXT(3)
GLOBAL_UNCERTAINTY_ASSIGNED_CONTEXT((#1156))
GLOBAL_UNIT_ASSIGNED_CONTEXT((#1160,#1162,#1163))
REPRESENTATION_CONTEXT('','3D')
);
#1159=(
GEOMETRIC_REPRESENTATION_CONTEXT(3)
GLOBAL_UNCERTAINTY_ASSIGNED_CONTEXT((#1157))
GLOBAL_UNIT_ASSIGNED_CONTEXT((#1160,#1162,#1163))
REPRESENTATION_CONTEXT('','3D')
);
#1160=(
LENGTH_UNIT()
NAMED_UNIT(*)
SI_UNIT(.MILLI.,.METRE.)
);
#1161=(
LENGTH_UNIT()
NAMED_UNIT(*)
SI_UNIT(.CENTI.,.METRE.)
);
#1162=(
NAMED_UNIT(*)
PLANE_ANGLE_UNIT()
SI_UNIT($,.RADIAN.)
);
#1163=(
NAMED_UNIT(*)
SI_UNIT($,.STERADIAN.)
SOLID_ANGLE_UNIT()
);
#1164=SHAPE_DEFINITION_REPRESENTATION(#1165,#1166);
#1165=PRODUCT_DEFINITION_SHAPE('',$,#1168);
#1166=SHAPE_REPRESENTATION('',(#692),#1158);
#1167=PRODUCT_DEFINITION_CONTEXT('part definition',#1172,'design');
#1168=PRODUCT_DEFINITION('GIGA NOZZLE','GIGA NOZZLE',#1169,#1167);
#1169=PRODUCT_DEFINITION_FORMATION('',$,#1174);
#1170=PRODUCT_RELATED_PRODUCT_CATEGORY('GIGA NOZZLE','GIGA NOZZLE',(#1174));
#1171=APPLICATION_PROTOCOL_DEFINITION('international standard',
'automotive_design',2009,#1172);
#1172=APPLICATION_CONTEXT(
'Core Data for Automotive Mechanical Design Process');
#1173=PRODUCT_CONTEXT('part definition',#1172,'mechanical');
#1174=PRODUCT('GIGA NOZZLE','GIGA NOZZLE',$,(#1173));
#1175=PRESENTATION_STYLE_ASSIGNMENT((#1176));
#1176=SURFACE_STYLE_USAGE(.BOTH.,#1177);
#1177=SURFACE_SIDE_STYLE('',(#1178));
#1178=SURFACE_STYLE_FILL_AREA(#1179);
#1179=FILL_AREA_STYLE('',(#1180));
#1180=FILL_AREA_STYLE_COLOUR('',#1181);
#1181=COLOUR_RGB('',0.301960784313725,0.305882352941176,0.290196078431373);
ENDSEC;
END-ISO-10303-21;
